G04 EAGLE Gerber X2 export*
%TF.Part,Single*%
%TF.FileFunction,Copper,L2,Bot,Mixed*%
%TF.FilePolarity,Positive*%
%TF.GenerationSoftware,Autodesk,EAGLE,8.6.1*%
%TF.CreationDate,2020-03-10T10:31:54Z*%
G75*
%MOMM*%
%FSLAX34Y34*%
%LPD*%
%AMOC8*
5,1,8,0,0,1.08239X$1,22.5*%
G01*
%ADD10C,1.068000*%
%ADD11C,1.218000*%
%ADD12C,2.000000*%
%ADD13C,0.756400*%
%ADD14C,0.254000*%
%ADD15C,0.856400*%

G36*
X1150019Y10163D02*
X1150019Y10163D01*
X1150071Y10163D01*
X1154390Y10405D01*
X1154416Y10410D01*
X1154442Y10409D01*
X1154601Y10435D01*
X1162915Y12333D01*
X1162931Y12338D01*
X1162948Y12341D01*
X1163080Y12393D01*
X1163213Y12442D01*
X1163228Y12451D01*
X1163243Y12458D01*
X1163358Y12541D01*
X1163476Y12622D01*
X1163487Y12634D01*
X1163501Y12644D01*
X1163592Y12754D01*
X1163685Y12861D01*
X1163693Y12876D01*
X1163704Y12889D01*
X1163764Y13018D01*
X1163828Y13145D01*
X1163832Y13162D01*
X1163839Y13177D01*
X1163866Y13316D01*
X1163896Y13456D01*
X1163896Y13473D01*
X1163899Y13490D01*
X1163890Y13631D01*
X1163885Y13773D01*
X1163880Y13790D01*
X1163879Y13807D01*
X1163835Y13942D01*
X1163795Y14078D01*
X1163786Y14093D01*
X1163781Y14109D01*
X1163705Y14230D01*
X1163632Y14352D01*
X1163620Y14364D01*
X1163611Y14378D01*
X1163507Y14476D01*
X1163407Y14576D01*
X1163392Y14584D01*
X1163379Y14596D01*
X1163255Y14664D01*
X1163132Y14737D01*
X1163116Y14741D01*
X1163101Y14750D01*
X1162964Y14785D01*
X1162827Y14824D01*
X1162809Y14825D01*
X1162793Y14829D01*
X1162632Y14839D01*
X1156688Y14839D01*
X1150288Y16554D01*
X1144551Y19866D01*
X1139866Y24551D01*
X1136554Y30288D01*
X1134839Y36688D01*
X1134839Y43312D01*
X1136554Y49712D01*
X1139866Y55449D01*
X1144551Y60134D01*
X1150288Y63446D01*
X1156688Y65161D01*
X1163312Y65161D01*
X1169712Y63446D01*
X1175449Y60134D01*
X1180134Y55449D01*
X1183446Y49712D01*
X1185161Y43312D01*
X1185161Y37368D01*
X1185163Y37351D01*
X1185161Y37334D01*
X1185183Y37194D01*
X1185201Y37052D01*
X1185207Y37036D01*
X1185209Y37019D01*
X1185265Y36889D01*
X1185318Y36757D01*
X1185328Y36743D01*
X1185334Y36727D01*
X1185421Y36614D01*
X1185504Y36499D01*
X1185518Y36488D01*
X1185528Y36475D01*
X1185640Y36387D01*
X1185749Y36296D01*
X1185765Y36289D01*
X1185778Y36279D01*
X1185909Y36221D01*
X1186037Y36161D01*
X1186054Y36158D01*
X1186070Y36151D01*
X1186211Y36128D01*
X1186349Y36101D01*
X1186367Y36102D01*
X1186383Y36099D01*
X1186525Y36112D01*
X1186667Y36121D01*
X1186683Y36126D01*
X1186700Y36128D01*
X1186834Y36175D01*
X1186969Y36219D01*
X1186984Y36228D01*
X1187000Y36234D01*
X1187118Y36313D01*
X1187238Y36389D01*
X1187250Y36402D01*
X1187264Y36411D01*
X1187359Y36517D01*
X1187456Y36621D01*
X1187464Y36636D01*
X1187476Y36648D01*
X1187541Y36775D01*
X1187610Y36899D01*
X1187614Y36916D01*
X1187622Y36931D01*
X1187667Y37085D01*
X1189565Y45399D01*
X1189568Y45425D01*
X1189576Y45450D01*
X1189595Y45610D01*
X1189837Y49929D01*
X1189836Y49948D01*
X1189839Y50000D01*
X1189839Y650000D01*
X1189837Y650019D01*
X1189837Y650071D01*
X1189595Y654390D01*
X1189590Y654416D01*
X1189591Y654442D01*
X1189565Y654601D01*
X1187667Y662915D01*
X1187662Y662931D01*
X1187659Y662948D01*
X1187607Y663080D01*
X1187558Y663213D01*
X1187549Y663227D01*
X1187542Y663243D01*
X1187459Y663358D01*
X1187378Y663476D01*
X1187366Y663487D01*
X1187356Y663501D01*
X1187246Y663592D01*
X1187139Y663685D01*
X1187124Y663693D01*
X1187111Y663704D01*
X1186982Y663764D01*
X1186855Y663828D01*
X1186838Y663832D01*
X1186823Y663839D01*
X1186684Y663866D01*
X1186544Y663896D01*
X1186527Y663896D01*
X1186510Y663899D01*
X1186369Y663890D01*
X1186227Y663885D01*
X1186210Y663880D01*
X1186193Y663879D01*
X1186058Y663835D01*
X1185922Y663795D01*
X1185907Y663786D01*
X1185891Y663781D01*
X1185770Y663705D01*
X1185648Y663632D01*
X1185636Y663620D01*
X1185622Y663611D01*
X1185524Y663507D01*
X1185424Y663407D01*
X1185416Y663392D01*
X1185404Y663379D01*
X1185336Y663255D01*
X1185263Y663132D01*
X1185259Y663116D01*
X1185250Y663101D01*
X1185215Y662964D01*
X1185176Y662827D01*
X1185175Y662809D01*
X1185171Y662793D01*
X1185161Y662632D01*
X1185161Y656688D01*
X1183446Y650288D01*
X1180134Y644551D01*
X1175449Y639866D01*
X1169712Y636554D01*
X1163312Y634839D01*
X1156688Y634839D01*
X1150288Y636554D01*
X1144551Y639866D01*
X1139866Y644551D01*
X1136554Y650288D01*
X1134839Y656688D01*
X1134839Y663312D01*
X1136554Y669712D01*
X1139866Y675449D01*
X1144551Y680134D01*
X1150288Y683446D01*
X1156688Y685161D01*
X1162632Y685161D01*
X1162649Y685163D01*
X1162666Y685161D01*
X1162806Y685183D01*
X1162948Y685201D01*
X1162964Y685207D01*
X1162981Y685209D01*
X1163111Y685265D01*
X1163243Y685318D01*
X1163257Y685328D01*
X1163273Y685334D01*
X1163386Y685421D01*
X1163501Y685504D01*
X1163512Y685518D01*
X1163525Y685528D01*
X1163613Y685640D01*
X1163704Y685749D01*
X1163711Y685765D01*
X1163721Y685778D01*
X1163779Y685909D01*
X1163839Y686037D01*
X1163842Y686054D01*
X1163849Y686070D01*
X1163872Y686211D01*
X1163899Y686349D01*
X1163898Y686367D01*
X1163901Y686383D01*
X1163888Y686525D01*
X1163879Y686667D01*
X1163874Y686683D01*
X1163872Y686700D01*
X1163825Y686834D01*
X1163781Y686969D01*
X1163772Y686984D01*
X1163766Y687000D01*
X1163687Y687118D01*
X1163611Y687238D01*
X1163598Y687250D01*
X1163589Y687264D01*
X1163483Y687359D01*
X1163379Y687456D01*
X1163364Y687464D01*
X1163352Y687476D01*
X1163225Y687541D01*
X1163101Y687610D01*
X1163084Y687614D01*
X1163069Y687622D01*
X1162915Y687667D01*
X1154601Y689565D01*
X1154575Y689568D01*
X1154549Y689576D01*
X1154390Y689595D01*
X1150071Y689837D01*
X1150052Y689836D01*
X1150000Y689839D01*
X50000Y689839D01*
X49981Y689837D01*
X49929Y689837D01*
X45610Y689595D01*
X45584Y689590D01*
X45558Y689591D01*
X45399Y689565D01*
X37085Y687667D01*
X37069Y687662D01*
X37052Y687659D01*
X36920Y687607D01*
X36787Y687558D01*
X36772Y687549D01*
X36757Y687542D01*
X36642Y687459D01*
X36524Y687378D01*
X36513Y687366D01*
X36499Y687356D01*
X36409Y687246D01*
X36315Y687139D01*
X36307Y687124D01*
X36296Y687111D01*
X36236Y686982D01*
X36172Y686855D01*
X36168Y686838D01*
X36161Y686823D01*
X36134Y686684D01*
X36104Y686544D01*
X36104Y686527D01*
X36101Y686510D01*
X36110Y686369D01*
X36115Y686227D01*
X36120Y686210D01*
X36121Y686193D01*
X36165Y686058D01*
X36205Y685922D01*
X36214Y685907D01*
X36219Y685891D01*
X36295Y685770D01*
X36368Y685648D01*
X36380Y685636D01*
X36389Y685622D01*
X36493Y685524D01*
X36593Y685424D01*
X36608Y685416D01*
X36621Y685404D01*
X36745Y685336D01*
X36868Y685263D01*
X36884Y685259D01*
X36899Y685250D01*
X37036Y685215D01*
X37173Y685176D01*
X37191Y685175D01*
X37207Y685171D01*
X37368Y685161D01*
X43312Y685161D01*
X49712Y683446D01*
X55449Y680134D01*
X60134Y675449D01*
X63446Y669712D01*
X65161Y663312D01*
X65161Y656688D01*
X63446Y650288D01*
X60134Y644551D01*
X55449Y639866D01*
X49712Y636554D01*
X43312Y634839D01*
X36688Y634839D01*
X30288Y636554D01*
X24551Y639866D01*
X19866Y644551D01*
X16554Y650288D01*
X14839Y656688D01*
X14839Y662632D01*
X14837Y662649D01*
X14839Y662666D01*
X14817Y662806D01*
X14799Y662948D01*
X14793Y662964D01*
X14791Y662981D01*
X14735Y663111D01*
X14682Y663243D01*
X14672Y663257D01*
X14666Y663273D01*
X14579Y663386D01*
X14496Y663501D01*
X14482Y663512D01*
X14472Y663525D01*
X14360Y663613D01*
X14251Y663704D01*
X14235Y663711D01*
X14222Y663721D01*
X14091Y663779D01*
X13963Y663839D01*
X13946Y663842D01*
X13930Y663849D01*
X13789Y663872D01*
X13651Y663899D01*
X13633Y663898D01*
X13617Y663901D01*
X13475Y663888D01*
X13333Y663879D01*
X13317Y663874D01*
X13300Y663872D01*
X13166Y663825D01*
X13031Y663781D01*
X13016Y663772D01*
X13000Y663766D01*
X12882Y663687D01*
X12762Y663611D01*
X12750Y663598D01*
X12736Y663589D01*
X12641Y663483D01*
X12544Y663379D01*
X12536Y663364D01*
X12524Y663352D01*
X12459Y663225D01*
X12390Y663101D01*
X12386Y663084D01*
X12378Y663069D01*
X12333Y662915D01*
X10435Y654601D01*
X10432Y654575D01*
X10424Y654550D01*
X10405Y654390D01*
X10163Y650071D01*
X10164Y650052D01*
X10161Y650000D01*
X10161Y50000D01*
X10163Y49981D01*
X10163Y49929D01*
X10405Y45610D01*
X10410Y45584D01*
X10409Y45558D01*
X10424Y45464D01*
X10425Y45463D01*
X10425Y45462D01*
X10435Y45399D01*
X12333Y37085D01*
X12338Y37069D01*
X12341Y37052D01*
X12393Y36920D01*
X12442Y36787D01*
X12451Y36773D01*
X12458Y36757D01*
X12541Y36642D01*
X12622Y36524D01*
X12634Y36513D01*
X12644Y36499D01*
X12754Y36408D01*
X12861Y36315D01*
X12876Y36307D01*
X12889Y36296D01*
X13018Y36236D01*
X13145Y36172D01*
X13162Y36168D01*
X13177Y36161D01*
X13316Y36134D01*
X13456Y36104D01*
X13473Y36104D01*
X13490Y36101D01*
X13631Y36110D01*
X13773Y36115D01*
X13790Y36120D01*
X13807Y36121D01*
X13942Y36165D01*
X14078Y36205D01*
X14093Y36214D01*
X14109Y36219D01*
X14230Y36295D01*
X14352Y36368D01*
X14364Y36380D01*
X14378Y36389D01*
X14476Y36493D01*
X14576Y36593D01*
X14584Y36608D01*
X14596Y36621D01*
X14664Y36745D01*
X14737Y36868D01*
X14741Y36884D01*
X14750Y36899D01*
X14785Y37036D01*
X14824Y37173D01*
X14825Y37191D01*
X14829Y37207D01*
X14839Y37368D01*
X14839Y43312D01*
X16554Y49712D01*
X19866Y55449D01*
X24551Y60134D01*
X30288Y63446D01*
X36688Y65161D01*
X43312Y65161D01*
X49712Y63446D01*
X55449Y60134D01*
X60134Y55449D01*
X63446Y49712D01*
X65161Y43312D01*
X65161Y36688D01*
X63446Y30288D01*
X60134Y24551D01*
X55449Y19866D01*
X49712Y16554D01*
X43312Y14839D01*
X37368Y14839D01*
X37351Y14837D01*
X37334Y14839D01*
X37194Y14817D01*
X37052Y14799D01*
X37036Y14793D01*
X37019Y14791D01*
X36889Y14735D01*
X36757Y14682D01*
X36743Y14672D01*
X36727Y14666D01*
X36614Y14579D01*
X36499Y14496D01*
X36488Y14482D01*
X36475Y14472D01*
X36387Y14360D01*
X36296Y14251D01*
X36289Y14235D01*
X36279Y14222D01*
X36221Y14091D01*
X36161Y13963D01*
X36158Y13946D01*
X36151Y13930D01*
X36128Y13789D01*
X36101Y13651D01*
X36102Y13633D01*
X36099Y13617D01*
X36112Y13475D01*
X36121Y13333D01*
X36126Y13317D01*
X36128Y13300D01*
X36175Y13166D01*
X36219Y13031D01*
X36228Y13016D01*
X36234Y13000D01*
X36313Y12882D01*
X36389Y12762D01*
X36402Y12750D01*
X36411Y12736D01*
X36517Y12641D01*
X36621Y12544D01*
X36636Y12536D01*
X36648Y12524D01*
X36775Y12459D01*
X36899Y12390D01*
X36916Y12386D01*
X36931Y12378D01*
X37085Y12333D01*
X45399Y10435D01*
X45425Y10432D01*
X45451Y10424D01*
X45610Y10405D01*
X49929Y10163D01*
X49948Y10164D01*
X50000Y10161D01*
X1150000Y10161D01*
X1150019Y10163D01*
G37*
%LPC*%
G36*
X829995Y66947D02*
X829995Y66947D01*
X828138Y67716D01*
X826716Y69138D01*
X825947Y70995D01*
X825947Y73005D01*
X826716Y74862D01*
X828138Y76284D01*
X829995Y77053D01*
X831934Y77053D01*
X832032Y77065D01*
X832131Y77068D01*
X832189Y77085D01*
X832249Y77093D01*
X832341Y77129D01*
X832437Y77157D01*
X832489Y77187D01*
X832545Y77210D01*
X832625Y77268D01*
X832710Y77318D01*
X832786Y77384D01*
X832802Y77396D01*
X832810Y77406D01*
X832831Y77424D01*
X901088Y145681D01*
X902635Y147229D01*
X902721Y147338D01*
X902809Y147445D01*
X902818Y147464D01*
X902830Y147480D01*
X902886Y147608D01*
X902945Y147733D01*
X902949Y147753D01*
X902957Y147772D01*
X902979Y147910D01*
X903005Y148046D01*
X903003Y148066D01*
X903007Y148086D01*
X902993Y148225D01*
X902985Y148363D01*
X902979Y148382D01*
X902977Y148402D01*
X902930Y148534D01*
X902887Y148665D01*
X902876Y148683D01*
X902869Y148702D01*
X902791Y148817D01*
X902717Y148934D01*
X902702Y148948D01*
X902691Y148965D01*
X902586Y149057D01*
X902485Y149152D01*
X902467Y149162D01*
X902452Y149175D01*
X902328Y149239D01*
X902207Y149306D01*
X902187Y149311D01*
X902169Y149320D01*
X902033Y149350D01*
X901899Y149385D01*
X901871Y149387D01*
X901859Y149390D01*
X901838Y149389D01*
X901738Y149395D01*
X787012Y149395D01*
X685319Y251088D01*
X685241Y251148D01*
X685169Y251216D01*
X685116Y251245D01*
X685068Y251282D01*
X684977Y251322D01*
X684890Y251370D01*
X684832Y251385D01*
X684776Y251409D01*
X684678Y251424D01*
X684583Y251449D01*
X684482Y251455D01*
X684462Y251459D01*
X684450Y251457D01*
X684422Y251459D01*
X567131Y251459D01*
X567032Y251447D01*
X566933Y251444D01*
X566875Y251427D01*
X566815Y251419D01*
X566723Y251383D01*
X566628Y251355D01*
X566576Y251325D01*
X566519Y251302D01*
X566439Y251244D01*
X566354Y251194D01*
X566279Y251128D01*
X566262Y251116D01*
X566254Y251106D01*
X566233Y251088D01*
X564862Y249716D01*
X563005Y248947D01*
X560995Y248947D01*
X559138Y249716D01*
X557716Y251138D01*
X556947Y252995D01*
X556947Y254104D01*
X556932Y254222D01*
X556925Y254341D01*
X556912Y254380D01*
X556907Y254420D01*
X556864Y254530D01*
X556827Y254644D01*
X556805Y254678D01*
X556790Y254715D01*
X556721Y254812D01*
X556657Y254912D01*
X556627Y254940D01*
X556604Y254973D01*
X556512Y255049D01*
X556425Y255130D01*
X556390Y255150D01*
X556359Y255176D01*
X556251Y255226D01*
X556147Y255284D01*
X556107Y255294D01*
X556071Y255311D01*
X555954Y255333D01*
X555839Y255363D01*
X555779Y255367D01*
X555759Y255371D01*
X555738Y255370D01*
X555678Y255373D01*
X554569Y255373D01*
X552712Y256143D01*
X551290Y257564D01*
X550521Y259421D01*
X550521Y261431D01*
X551290Y263288D01*
X552712Y264710D01*
X554569Y265479D01*
X556579Y265479D01*
X558436Y264710D01*
X559657Y263488D01*
X559735Y263428D01*
X559808Y263360D01*
X559861Y263331D01*
X559908Y263294D01*
X559999Y263254D01*
X560086Y263206D01*
X560145Y263191D01*
X560200Y263167D01*
X560298Y263152D01*
X560394Y263127D01*
X560494Y263121D01*
X560514Y263117D01*
X560527Y263119D01*
X560555Y263117D01*
X683226Y263117D01*
X683363Y263134D01*
X683502Y263147D01*
X683521Y263154D01*
X683541Y263157D01*
X683670Y263208D01*
X683802Y263255D01*
X683818Y263266D01*
X683837Y263274D01*
X683949Y263355D01*
X684065Y263433D01*
X684078Y263449D01*
X684094Y263460D01*
X684183Y263568D01*
X684275Y263672D01*
X684284Y263690D01*
X684297Y263705D01*
X684356Y263831D01*
X684420Y263955D01*
X684424Y263975D01*
X684433Y263993D01*
X684459Y264129D01*
X684489Y264265D01*
X684489Y264286D01*
X684493Y264305D01*
X684484Y264444D01*
X684480Y264583D01*
X684474Y264603D01*
X684473Y264623D01*
X684430Y264755D01*
X684391Y264889D01*
X684381Y264906D01*
X684375Y264925D01*
X684300Y265043D01*
X684230Y265163D01*
X684211Y265184D01*
X684205Y265194D01*
X684190Y265208D01*
X684123Y265283D01*
X659027Y290380D01*
X658933Y290453D01*
X658844Y290531D01*
X658808Y290550D01*
X658776Y290574D01*
X658667Y290622D01*
X658561Y290676D01*
X658521Y290685D01*
X658484Y290701D01*
X658366Y290720D01*
X658250Y290746D01*
X658210Y290744D01*
X658170Y290751D01*
X658051Y290740D01*
X657933Y290736D01*
X657894Y290725D01*
X657853Y290721D01*
X657741Y290681D01*
X657627Y290647D01*
X657592Y290627D01*
X657554Y290613D01*
X657456Y290546D01*
X657353Y290486D01*
X657308Y290446D01*
X657291Y290435D01*
X657277Y290419D01*
X657232Y290380D01*
X657145Y290293D01*
X655105Y289447D01*
X652895Y289447D01*
X650855Y290293D01*
X649293Y291855D01*
X648447Y293895D01*
X648447Y296105D01*
X649293Y298145D01*
X650855Y299707D01*
X652895Y300553D01*
X655105Y300553D01*
X655610Y300343D01*
X655678Y300325D01*
X655742Y300297D01*
X655831Y300283D01*
X655917Y300259D01*
X655987Y300258D01*
X656056Y300247D01*
X656145Y300256D01*
X656235Y300254D01*
X656303Y300270D01*
X656372Y300277D01*
X656457Y300307D01*
X656544Y300328D01*
X656606Y300361D01*
X656672Y300385D01*
X656746Y300435D01*
X656825Y300477D01*
X656877Y300524D01*
X656935Y300563D01*
X656994Y300631D01*
X657061Y300691D01*
X657099Y300749D01*
X657145Y300802D01*
X657186Y300882D01*
X657235Y300957D01*
X657258Y301023D01*
X657290Y301085D01*
X657310Y301172D01*
X657339Y301258D01*
X657344Y301327D01*
X657360Y301395D01*
X657357Y301485D01*
X657364Y301575D01*
X657352Y301643D01*
X657350Y301713D01*
X657325Y301799D01*
X657310Y301888D01*
X657281Y301952D01*
X657261Y302019D01*
X657216Y302096D01*
X657179Y302178D01*
X657135Y302232D01*
X657100Y302293D01*
X656994Y302413D01*
X654319Y305088D01*
X654241Y305148D01*
X654169Y305216D01*
X654116Y305245D01*
X654068Y305282D01*
X653977Y305322D01*
X653890Y305370D01*
X653832Y305385D01*
X653776Y305409D01*
X653678Y305424D01*
X653583Y305449D01*
X653482Y305455D01*
X653462Y305459D01*
X653450Y305457D01*
X653422Y305459D01*
X591131Y305459D01*
X591032Y305447D01*
X590933Y305444D01*
X590875Y305427D01*
X590815Y305419D01*
X590723Y305383D01*
X590628Y305355D01*
X590576Y305325D01*
X590519Y305302D01*
X590439Y305244D01*
X590354Y305194D01*
X590279Y305128D01*
X590262Y305116D01*
X590254Y305106D01*
X590233Y305088D01*
X588862Y303716D01*
X587005Y302947D01*
X584995Y302947D01*
X583138Y303716D01*
X581716Y305138D01*
X580947Y306995D01*
X580947Y309005D01*
X581716Y310862D01*
X583138Y312284D01*
X584995Y313053D01*
X587005Y313053D01*
X588862Y312284D01*
X590233Y310912D01*
X590311Y310852D01*
X590384Y310784D01*
X590437Y310755D01*
X590484Y310718D01*
X590575Y310678D01*
X590662Y310630D01*
X590721Y310615D01*
X590776Y310591D01*
X590874Y310576D01*
X590970Y310551D01*
X591070Y310545D01*
X591090Y310541D01*
X591103Y310543D01*
X591131Y310541D01*
X656052Y310541D01*
X792681Y173912D01*
X792759Y173852D01*
X792831Y173784D01*
X792884Y173755D01*
X792932Y173718D01*
X793023Y173678D01*
X793110Y173630D01*
X793168Y173615D01*
X793224Y173591D01*
X793322Y173576D01*
X793417Y173551D01*
X793518Y173545D01*
X793538Y173541D01*
X793550Y173543D01*
X793578Y173541D01*
X1040321Y173541D01*
X1040350Y173544D01*
X1040380Y173542D01*
X1040508Y173564D01*
X1040637Y173581D01*
X1040664Y173591D01*
X1040693Y173596D01*
X1040812Y173650D01*
X1040932Y173698D01*
X1040956Y173715D01*
X1040983Y173727D01*
X1041085Y173808D01*
X1041190Y173884D01*
X1041208Y173907D01*
X1041232Y173926D01*
X1041310Y174029D01*
X1041392Y174129D01*
X1041405Y174156D01*
X1041423Y174180D01*
X1041494Y174324D01*
X1041716Y174862D01*
X1043138Y176284D01*
X1044995Y177053D01*
X1047005Y177053D01*
X1048862Y176284D01*
X1050284Y174862D01*
X1051053Y173005D01*
X1051053Y170995D01*
X1050630Y169974D01*
X1050617Y169926D01*
X1050595Y169881D01*
X1050575Y169773D01*
X1050546Y169667D01*
X1050545Y169617D01*
X1050536Y169568D01*
X1050542Y169459D01*
X1050541Y169349D01*
X1050552Y169301D01*
X1050555Y169251D01*
X1050589Y169147D01*
X1050615Y169040D01*
X1050638Y168996D01*
X1050653Y168949D01*
X1050712Y168856D01*
X1050764Y168759D01*
X1050797Y168722D01*
X1050824Y168680D01*
X1050904Y168604D01*
X1050977Y168523D01*
X1051019Y168496D01*
X1051055Y168462D01*
X1051151Y168409D01*
X1051243Y168349D01*
X1051290Y168332D01*
X1051334Y168308D01*
X1051440Y168281D01*
X1051544Y168245D01*
X1051594Y168241D01*
X1051642Y168229D01*
X1051802Y168219D01*
X1069100Y168219D01*
X1069198Y168231D01*
X1069297Y168234D01*
X1069355Y168251D01*
X1069415Y168259D01*
X1069507Y168295D01*
X1069603Y168323D01*
X1069655Y168353D01*
X1069711Y168376D01*
X1069791Y168434D01*
X1069876Y168484D01*
X1069952Y168550D01*
X1069968Y168562D01*
X1069976Y168572D01*
X1069997Y168590D01*
X1076088Y174681D01*
X1076148Y174759D01*
X1076216Y174831D01*
X1076245Y174884D01*
X1076282Y174932D01*
X1076322Y175023D01*
X1076370Y175110D01*
X1076385Y175168D01*
X1076409Y175224D01*
X1076424Y175322D01*
X1076449Y175417D01*
X1076455Y175518D01*
X1076459Y175538D01*
X1076457Y175550D01*
X1076459Y175578D01*
X1076459Y288052D01*
X1152088Y363681D01*
X1152148Y363759D01*
X1152216Y363831D01*
X1152245Y363884D01*
X1152282Y363932D01*
X1152322Y364023D01*
X1152370Y364110D01*
X1152385Y364168D01*
X1152409Y364224D01*
X1152424Y364322D01*
X1152449Y364417D01*
X1152455Y364518D01*
X1152459Y364538D01*
X1152457Y364550D01*
X1152459Y364578D01*
X1152459Y410422D01*
X1152447Y410520D01*
X1152444Y410619D01*
X1152427Y410677D01*
X1152419Y410737D01*
X1152383Y410829D01*
X1152355Y410925D01*
X1152325Y410977D01*
X1152302Y411033D01*
X1152244Y411113D01*
X1152194Y411198D01*
X1152128Y411274D01*
X1152116Y411290D01*
X1152106Y411298D01*
X1152088Y411319D01*
X1135087Y428320D01*
X1135048Y428350D01*
X1135014Y428387D01*
X1134922Y428448D01*
X1134836Y428515D01*
X1134790Y428535D01*
X1134749Y428562D01*
X1134645Y428598D01*
X1134544Y428641D01*
X1134495Y428649D01*
X1134448Y428665D01*
X1134338Y428674D01*
X1134230Y428691D01*
X1134180Y428686D01*
X1134131Y428690D01*
X1134022Y428672D01*
X1133913Y428661D01*
X1133866Y428644D01*
X1133817Y428636D01*
X1133717Y428591D01*
X1133614Y428554D01*
X1133573Y428526D01*
X1133527Y428505D01*
X1133442Y428437D01*
X1133351Y428375D01*
X1133318Y428338D01*
X1133279Y428307D01*
X1133213Y428219D01*
X1133140Y428137D01*
X1133118Y428092D01*
X1133088Y428053D01*
X1133017Y427908D01*
X1132284Y426138D01*
X1130862Y424716D01*
X1129005Y423947D01*
X1126995Y423947D01*
X1125138Y424716D01*
X1123716Y426138D01*
X1122947Y427995D01*
X1122947Y429934D01*
X1122935Y430032D01*
X1122932Y430131D01*
X1122915Y430189D01*
X1122907Y430249D01*
X1122871Y430341D01*
X1122843Y430437D01*
X1122813Y430489D01*
X1122790Y430545D01*
X1122732Y430625D01*
X1122682Y430710D01*
X1122616Y430786D01*
X1122604Y430802D01*
X1122594Y430810D01*
X1122576Y430831D01*
X1084319Y469088D01*
X1084241Y469148D01*
X1084169Y469216D01*
X1084116Y469245D01*
X1084068Y469282D01*
X1083977Y469322D01*
X1083890Y469370D01*
X1083832Y469385D01*
X1083776Y469409D01*
X1083678Y469424D01*
X1083583Y469449D01*
X1083482Y469455D01*
X1083462Y469459D01*
X1083450Y469457D01*
X1083422Y469459D01*
X959270Y469459D01*
X950831Y477898D01*
X950753Y477958D01*
X950681Y478026D01*
X950628Y478055D01*
X950580Y478092D01*
X950489Y478132D01*
X950402Y478180D01*
X950344Y478195D01*
X950288Y478219D01*
X950190Y478234D01*
X950095Y478259D01*
X949994Y478265D01*
X949974Y478269D01*
X949962Y478267D01*
X949934Y478269D01*
X947995Y478269D01*
X946138Y479038D01*
X944716Y480460D01*
X943947Y482317D01*
X943947Y483290D01*
X943930Y483427D01*
X943917Y483566D01*
X943910Y483585D01*
X943907Y483605D01*
X943856Y483734D01*
X943809Y483866D01*
X943798Y483882D01*
X943790Y483901D01*
X943709Y484013D01*
X943631Y484129D01*
X943615Y484142D01*
X943604Y484158D01*
X943496Y484247D01*
X943392Y484339D01*
X943374Y484348D01*
X943359Y484361D01*
X943233Y484420D01*
X943109Y484484D01*
X943089Y484488D01*
X943071Y484497D01*
X942935Y484523D01*
X942799Y484553D01*
X942778Y484553D01*
X942759Y484557D01*
X942620Y484548D01*
X942481Y484544D01*
X942461Y484538D01*
X942441Y484537D01*
X942309Y484494D01*
X942175Y484455D01*
X942158Y484445D01*
X942139Y484439D01*
X942021Y484364D01*
X941901Y484294D01*
X941880Y484275D01*
X941870Y484269D01*
X941856Y484254D01*
X941781Y484187D01*
X909424Y451831D01*
X909364Y451753D01*
X909296Y451681D01*
X909267Y451628D01*
X909230Y451580D01*
X909190Y451489D01*
X909142Y451402D01*
X909127Y451344D01*
X909103Y451288D01*
X909088Y451190D01*
X909063Y451095D01*
X909057Y450994D01*
X909053Y450974D01*
X909055Y450962D01*
X909053Y450934D01*
X909053Y448995D01*
X908284Y447138D01*
X906862Y445716D01*
X905005Y444947D01*
X902995Y444947D01*
X901138Y445716D01*
X899716Y447138D01*
X898947Y448995D01*
X898947Y451005D01*
X899716Y452862D01*
X901138Y454284D01*
X902995Y455053D01*
X904934Y455053D01*
X905032Y455065D01*
X905131Y455068D01*
X905189Y455085D01*
X905249Y455093D01*
X905341Y455129D01*
X905437Y455157D01*
X905489Y455187D01*
X905545Y455210D01*
X905625Y455268D01*
X905710Y455318D01*
X905786Y455384D01*
X905802Y455396D01*
X905810Y455406D01*
X905831Y455424D01*
X955576Y505169D01*
X955636Y505247D01*
X955704Y505319D01*
X955733Y505372D01*
X955770Y505420D01*
X955810Y505511D01*
X955858Y505598D01*
X955873Y505656D01*
X955897Y505712D01*
X955912Y505810D01*
X955937Y505905D01*
X955943Y506006D01*
X955947Y506026D01*
X955945Y506038D01*
X955947Y506066D01*
X955947Y508005D01*
X956716Y509862D01*
X958138Y511284D01*
X959995Y512053D01*
X962005Y512053D01*
X963862Y511284D01*
X965284Y509862D01*
X966053Y508005D01*
X966053Y505995D01*
X965284Y504138D01*
X963862Y502716D01*
X962005Y501947D01*
X960066Y501947D01*
X959968Y501935D01*
X959869Y501932D01*
X959811Y501915D01*
X959751Y501907D01*
X959659Y501871D01*
X959563Y501843D01*
X959511Y501813D01*
X959455Y501790D01*
X959375Y501732D01*
X959290Y501682D01*
X959214Y501616D01*
X959198Y501604D01*
X959190Y501594D01*
X959169Y501576D01*
X948135Y490541D01*
X948049Y490432D01*
X947961Y490325D01*
X947952Y490306D01*
X947940Y490290D01*
X947884Y490162D01*
X947825Y490037D01*
X947821Y490017D01*
X947813Y489998D01*
X947791Y489860D01*
X947765Y489724D01*
X947767Y489704D01*
X947763Y489684D01*
X947777Y489544D01*
X947785Y489407D01*
X947791Y489388D01*
X947793Y489368D01*
X947840Y489236D01*
X947883Y489105D01*
X947894Y489087D01*
X947901Y489068D01*
X947979Y488953D01*
X948053Y488836D01*
X948068Y488822D01*
X948079Y488805D01*
X948184Y488713D01*
X948285Y488618D01*
X948303Y488608D01*
X948318Y488595D01*
X948442Y488531D01*
X948563Y488464D01*
X948583Y488459D01*
X948601Y488450D01*
X948737Y488420D01*
X948871Y488385D01*
X948899Y488383D01*
X948911Y488380D01*
X948932Y488381D01*
X949032Y488375D01*
X950005Y488375D01*
X951862Y487606D01*
X953284Y486184D01*
X954053Y484327D01*
X954053Y482388D01*
X954065Y482290D01*
X954068Y482191D01*
X954085Y482133D01*
X954093Y482073D01*
X954129Y481981D01*
X954157Y481885D01*
X954187Y481833D01*
X954210Y481777D01*
X954268Y481697D01*
X954318Y481612D01*
X954384Y481536D01*
X954396Y481520D01*
X954406Y481512D01*
X954424Y481491D01*
X961003Y474912D01*
X961081Y474852D01*
X961153Y474784D01*
X961206Y474755D01*
X961254Y474718D01*
X961345Y474678D01*
X961432Y474630D01*
X961490Y474615D01*
X961546Y474591D01*
X961644Y474576D01*
X961739Y474551D01*
X961840Y474545D01*
X961860Y474541D01*
X961872Y474543D01*
X961900Y474541D01*
X1040802Y474541D01*
X1040940Y474558D01*
X1041078Y474571D01*
X1041097Y474578D01*
X1041117Y474581D01*
X1041247Y474632D01*
X1041378Y474679D01*
X1041394Y474690D01*
X1041413Y474698D01*
X1041526Y474779D01*
X1041641Y474857D01*
X1041654Y474873D01*
X1041670Y474884D01*
X1041759Y474992D01*
X1041851Y475096D01*
X1041860Y475114D01*
X1041873Y475129D01*
X1041932Y475255D01*
X1041996Y475379D01*
X1042000Y475399D01*
X1042009Y475417D01*
X1042035Y475553D01*
X1042065Y475689D01*
X1042065Y475710D01*
X1042069Y475729D01*
X1042060Y475868D01*
X1042056Y476007D01*
X1042050Y476027D01*
X1042049Y476047D01*
X1042006Y476179D01*
X1041967Y476313D01*
X1041957Y476330D01*
X1041951Y476349D01*
X1041876Y476467D01*
X1041806Y476587D01*
X1041787Y476608D01*
X1041781Y476618D01*
X1041766Y476632D01*
X1041699Y476708D01*
X1041088Y477319D01*
X910831Y607576D01*
X910753Y607636D01*
X910681Y607704D01*
X910628Y607733D01*
X910580Y607770D01*
X910489Y607810D01*
X910402Y607858D01*
X910344Y607873D01*
X910288Y607897D01*
X910190Y607912D01*
X910095Y607937D01*
X909994Y607943D01*
X909974Y607947D01*
X909962Y607945D01*
X909934Y607947D01*
X907995Y607947D01*
X906138Y608716D01*
X904716Y610138D01*
X903947Y611995D01*
X903947Y614005D01*
X904716Y615862D01*
X906138Y617284D01*
X907995Y618053D01*
X910005Y618053D01*
X911862Y617284D01*
X913284Y615862D01*
X914053Y614005D01*
X914053Y612066D01*
X914065Y611968D01*
X914068Y611869D01*
X914085Y611811D01*
X914093Y611751D01*
X914129Y611659D01*
X914157Y611563D01*
X914187Y611511D01*
X914210Y611455D01*
X914268Y611375D01*
X914318Y611290D01*
X914384Y611214D01*
X914396Y611198D01*
X914406Y611190D01*
X914424Y611169D01*
X921781Y603813D01*
X921890Y603727D01*
X921997Y603639D01*
X922016Y603630D01*
X922032Y603618D01*
X922160Y603562D01*
X922285Y603503D01*
X922305Y603499D01*
X922324Y603491D01*
X922462Y603469D01*
X922598Y603443D01*
X922618Y603445D01*
X922638Y603441D01*
X922777Y603455D01*
X922915Y603463D01*
X922934Y603469D01*
X922954Y603471D01*
X923086Y603518D01*
X923217Y603561D01*
X923235Y603572D01*
X923254Y603579D01*
X923369Y603657D01*
X923486Y603731D01*
X923500Y603746D01*
X923517Y603757D01*
X923609Y603862D01*
X923704Y603963D01*
X923714Y603981D01*
X923727Y603996D01*
X923791Y604120D01*
X923858Y604241D01*
X923863Y604261D01*
X923872Y604279D01*
X923902Y604415D01*
X923937Y604549D01*
X923939Y604577D01*
X923942Y604589D01*
X923941Y604610D01*
X923947Y604710D01*
X923947Y606005D01*
X924716Y607862D01*
X926138Y609284D01*
X927995Y610053D01*
X930005Y610053D01*
X931862Y609284D01*
X933284Y607862D01*
X934053Y606005D01*
X934053Y604066D01*
X934065Y603968D01*
X934068Y603869D01*
X934085Y603811D01*
X934093Y603751D01*
X934129Y603659D01*
X934157Y603563D01*
X934187Y603511D01*
X934210Y603455D01*
X934268Y603375D01*
X934318Y603290D01*
X934384Y603214D01*
X934396Y603198D01*
X934406Y603190D01*
X934424Y603169D01*
X1049681Y487912D01*
X1049759Y487852D01*
X1049831Y487784D01*
X1049884Y487755D01*
X1049932Y487718D01*
X1050023Y487678D01*
X1050110Y487630D01*
X1050168Y487615D01*
X1050224Y487591D01*
X1050322Y487576D01*
X1050417Y487551D01*
X1050518Y487545D01*
X1050538Y487541D01*
X1050550Y487543D01*
X1050578Y487541D01*
X1096052Y487541D01*
X1165541Y418052D01*
X1165541Y359948D01*
X1109348Y303755D01*
X1109263Y303645D01*
X1109174Y303538D01*
X1109165Y303520D01*
X1109153Y303504D01*
X1109098Y303376D01*
X1109039Y303250D01*
X1109035Y303230D01*
X1109027Y303212D01*
X1109005Y303074D01*
X1108979Y302938D01*
X1108980Y302918D01*
X1108977Y302898D01*
X1108977Y302897D01*
X1108969Y302897D01*
X1108830Y302893D01*
X1108810Y302887D01*
X1108790Y302886D01*
X1108658Y302843D01*
X1108524Y302804D01*
X1108507Y302794D01*
X1108487Y302788D01*
X1108370Y302713D01*
X1108250Y302643D01*
X1108229Y302624D01*
X1108219Y302618D01*
X1108205Y302603D01*
X1108129Y302536D01*
X1088912Y283319D01*
X1088852Y283241D01*
X1088784Y283169D01*
X1088755Y283116D01*
X1088718Y283068D01*
X1088678Y282977D01*
X1088630Y282890D01*
X1088615Y282832D01*
X1088591Y282776D01*
X1088576Y282678D01*
X1088551Y282583D01*
X1088545Y282482D01*
X1088541Y282462D01*
X1088543Y282450D01*
X1088541Y282422D01*
X1088541Y274131D01*
X1088553Y274032D01*
X1088556Y273933D01*
X1088573Y273875D01*
X1088581Y273815D01*
X1088617Y273723D01*
X1088645Y273628D01*
X1088675Y273576D01*
X1088698Y273519D01*
X1088756Y273439D01*
X1088806Y273354D01*
X1088872Y273279D01*
X1088884Y273262D01*
X1088894Y273254D01*
X1088912Y273233D01*
X1090284Y271862D01*
X1091053Y270005D01*
X1091053Y267995D01*
X1090284Y266138D01*
X1088862Y264716D01*
X1087005Y263947D01*
X1084995Y263947D01*
X1083296Y264651D01*
X1083248Y264664D01*
X1083203Y264685D01*
X1083095Y264706D01*
X1082989Y264735D01*
X1082939Y264736D01*
X1082890Y264745D01*
X1082781Y264738D01*
X1082671Y264740D01*
X1082623Y264729D01*
X1082573Y264725D01*
X1082469Y264692D01*
X1082362Y264666D01*
X1082318Y264643D01*
X1082271Y264627D01*
X1082178Y264569D01*
X1082081Y264517D01*
X1082044Y264484D01*
X1082002Y264457D01*
X1081927Y264377D01*
X1081845Y264303D01*
X1081818Y264262D01*
X1081784Y264226D01*
X1081731Y264129D01*
X1081671Y264038D01*
X1081654Y263991D01*
X1081630Y263947D01*
X1081603Y263841D01*
X1081567Y263737D01*
X1081563Y263687D01*
X1081551Y263639D01*
X1081541Y263479D01*
X1081541Y172948D01*
X1071730Y163137D01*
X1042315Y163137D01*
X1042300Y163148D01*
X1042228Y163216D01*
X1042175Y163245D01*
X1042127Y163282D01*
X1042036Y163322D01*
X1041950Y163370D01*
X1041891Y163385D01*
X1041836Y163409D01*
X1041738Y163424D01*
X1041642Y163449D01*
X1041542Y163455D01*
X1041521Y163459D01*
X1041509Y163457D01*
X1041481Y163459D01*
X1029263Y163459D01*
X1029125Y163442D01*
X1028986Y163429D01*
X1028967Y163422D01*
X1028947Y163419D01*
X1028818Y163368D01*
X1028687Y163321D01*
X1028670Y163310D01*
X1028651Y163302D01*
X1028539Y163221D01*
X1028424Y163142D01*
X1028410Y163127D01*
X1028394Y163116D01*
X1028305Y163008D01*
X1028213Y162904D01*
X1028204Y162886D01*
X1028191Y162871D01*
X1028132Y162744D01*
X1028069Y162621D01*
X1028064Y162601D01*
X1028056Y162583D01*
X1028030Y162447D01*
X1027999Y162310D01*
X1028000Y162290D01*
X1027996Y162271D01*
X1028004Y162132D01*
X1028009Y161993D01*
X1028014Y161973D01*
X1028016Y161953D01*
X1028058Y161821D01*
X1028097Y161687D01*
X1028107Y161670D01*
X1028114Y161651D01*
X1028188Y161533D01*
X1028259Y161413D01*
X1028275Y161395D01*
X1029053Y159517D01*
X1029053Y157507D01*
X1028524Y156232D01*
X1028511Y156184D01*
X1028490Y156139D01*
X1028470Y156031D01*
X1028441Y155925D01*
X1028440Y155875D01*
X1028430Y155826D01*
X1028437Y155717D01*
X1028435Y155607D01*
X1028447Y155559D01*
X1028450Y155509D01*
X1028484Y155405D01*
X1028510Y155298D01*
X1028533Y155254D01*
X1028548Y155207D01*
X1028607Y155114D01*
X1028658Y155017D01*
X1028692Y154980D01*
X1028718Y154938D01*
X1028799Y154862D01*
X1028872Y154781D01*
X1028914Y154754D01*
X1028950Y154720D01*
X1029046Y154667D01*
X1029138Y154607D01*
X1029185Y154590D01*
X1029228Y154566D01*
X1029335Y154539D01*
X1029439Y154503D01*
X1029488Y154499D01*
X1029536Y154487D01*
X1029697Y154477D01*
X1038805Y154477D01*
X1038904Y154489D01*
X1039003Y154492D01*
X1039061Y154509D01*
X1039121Y154517D01*
X1039213Y154553D01*
X1039308Y154581D01*
X1039360Y154611D01*
X1039417Y154634D01*
X1039497Y154692D01*
X1039582Y154742D01*
X1039657Y154808D01*
X1039674Y154820D01*
X1039682Y154830D01*
X1039703Y154848D01*
X1041138Y156284D01*
X1042995Y157053D01*
X1045005Y157053D01*
X1046862Y156284D01*
X1048284Y154862D01*
X1049053Y153005D01*
X1049053Y150995D01*
X1048349Y149296D01*
X1048336Y149248D01*
X1048315Y149203D01*
X1048294Y149095D01*
X1048265Y148989D01*
X1048264Y148939D01*
X1048255Y148890D01*
X1048262Y148781D01*
X1048260Y148671D01*
X1048271Y148623D01*
X1048275Y148573D01*
X1048308Y148469D01*
X1048334Y148362D01*
X1048357Y148318D01*
X1048373Y148271D01*
X1048431Y148178D01*
X1048483Y148081D01*
X1048516Y148044D01*
X1048543Y148002D01*
X1048623Y147927D01*
X1048697Y147845D01*
X1048738Y147818D01*
X1048774Y147784D01*
X1048871Y147731D01*
X1048962Y147671D01*
X1049009Y147654D01*
X1049053Y147630D01*
X1049159Y147603D01*
X1049263Y147567D01*
X1049313Y147563D01*
X1049361Y147551D01*
X1049521Y147541D01*
X1055869Y147541D01*
X1055968Y147553D01*
X1056067Y147556D01*
X1056125Y147573D01*
X1056185Y147581D01*
X1056277Y147617D01*
X1056372Y147645D01*
X1056424Y147675D01*
X1056481Y147698D01*
X1056561Y147756D01*
X1056646Y147806D01*
X1056721Y147872D01*
X1056738Y147884D01*
X1056746Y147894D01*
X1056767Y147912D01*
X1058138Y149284D01*
X1059995Y150053D01*
X1062005Y150053D01*
X1063862Y149284D01*
X1065284Y147862D01*
X1066053Y146005D01*
X1066053Y143995D01*
X1065284Y142138D01*
X1063862Y140716D01*
X1062005Y139947D01*
X1059995Y139947D01*
X1058138Y140716D01*
X1056767Y142088D01*
X1056689Y142148D01*
X1056616Y142216D01*
X1056563Y142245D01*
X1056516Y142282D01*
X1056425Y142322D01*
X1056338Y142370D01*
X1056279Y142385D01*
X1056224Y142409D01*
X1056126Y142424D01*
X1056030Y142449D01*
X1055930Y142455D01*
X1055910Y142459D01*
X1055897Y142457D01*
X1055869Y142459D01*
X971751Y142459D01*
X971613Y142442D01*
X971474Y142429D01*
X971455Y142422D01*
X971435Y142419D01*
X971306Y142368D01*
X971175Y142321D01*
X971158Y142310D01*
X971139Y142302D01*
X971027Y142221D01*
X970912Y142143D01*
X970898Y142127D01*
X970882Y142116D01*
X970793Y142008D01*
X970701Y141904D01*
X970692Y141886D01*
X970679Y141871D01*
X970620Y141745D01*
X970557Y141621D01*
X970552Y141601D01*
X970544Y141583D01*
X970518Y141446D01*
X970487Y141311D01*
X970488Y141290D01*
X970484Y141271D01*
X970493Y141132D01*
X970497Y140993D01*
X970502Y140973D01*
X970504Y140953D01*
X970546Y140821D01*
X970585Y140687D01*
X970595Y140670D01*
X970602Y140651D01*
X970676Y140533D01*
X970747Y140413D01*
X970765Y140392D01*
X970772Y140382D01*
X970787Y140368D01*
X970853Y140293D01*
X972284Y138862D01*
X973053Y137005D01*
X973053Y134995D01*
X972284Y133138D01*
X970912Y131767D01*
X970852Y131689D01*
X970784Y131616D01*
X970755Y131563D01*
X970718Y131516D01*
X970678Y131425D01*
X970630Y131338D01*
X970615Y131279D01*
X970591Y131224D01*
X970576Y131126D01*
X970551Y131030D01*
X970545Y130930D01*
X970541Y130910D01*
X970543Y130897D01*
X970541Y130869D01*
X970541Y77131D01*
X970553Y77032D01*
X970556Y76933D01*
X970573Y76875D01*
X970581Y76815D01*
X970617Y76723D01*
X970645Y76628D01*
X970675Y76576D01*
X970698Y76519D01*
X970756Y76439D01*
X970806Y76354D01*
X970872Y76279D01*
X970884Y76262D01*
X970894Y76254D01*
X970912Y76233D01*
X972284Y74862D01*
X973053Y73005D01*
X973053Y70995D01*
X972284Y69138D01*
X970862Y67716D01*
X969005Y66947D01*
X966995Y66947D01*
X965138Y67716D01*
X963716Y69138D01*
X962947Y70995D01*
X962947Y73005D01*
X963716Y74862D01*
X965088Y76233D01*
X965148Y76311D01*
X965216Y76384D01*
X965245Y76437D01*
X965282Y76484D01*
X965322Y76575D01*
X965370Y76662D01*
X965385Y76721D01*
X965409Y76776D01*
X965424Y76874D01*
X965449Y76970D01*
X965455Y77070D01*
X965459Y77090D01*
X965457Y77103D01*
X965459Y77131D01*
X965459Y130869D01*
X965447Y130968D01*
X965444Y131067D01*
X965427Y131125D01*
X965419Y131185D01*
X965383Y131277D01*
X965355Y131372D01*
X965325Y131424D01*
X965302Y131481D01*
X965244Y131561D01*
X965194Y131646D01*
X965128Y131721D01*
X965116Y131738D01*
X965106Y131746D01*
X965088Y131767D01*
X963716Y133138D01*
X962947Y134995D01*
X962947Y137005D01*
X963716Y138862D01*
X965147Y140293D01*
X965232Y140402D01*
X965321Y140509D01*
X965329Y140528D01*
X965342Y140544D01*
X965397Y140672D01*
X965456Y140797D01*
X965460Y140817D01*
X965468Y140836D01*
X965490Y140974D01*
X965516Y141110D01*
X965515Y141130D01*
X965518Y141150D01*
X965505Y141289D01*
X965496Y141427D01*
X965490Y141446D01*
X965488Y141466D01*
X965441Y141598D01*
X965398Y141729D01*
X965388Y141747D01*
X965381Y141766D01*
X965303Y141881D01*
X965228Y141998D01*
X965213Y142012D01*
X965202Y142029D01*
X965098Y142121D01*
X964997Y142216D01*
X964979Y142226D01*
X964964Y142239D01*
X964840Y142303D01*
X964718Y142370D01*
X964698Y142375D01*
X964680Y142384D01*
X964545Y142414D01*
X964410Y142449D01*
X964382Y142451D01*
X964370Y142454D01*
X964350Y142453D01*
X964249Y142459D01*
X905578Y142459D01*
X905480Y142447D01*
X905381Y142444D01*
X905323Y142427D01*
X905263Y142419D01*
X905171Y142383D01*
X905075Y142355D01*
X905023Y142325D01*
X904967Y142302D01*
X904887Y142244D01*
X904802Y142194D01*
X904726Y142128D01*
X904710Y142116D01*
X904702Y142106D01*
X904681Y142088D01*
X836424Y73831D01*
X836364Y73753D01*
X836296Y73681D01*
X836267Y73628D01*
X836230Y73580D01*
X836190Y73489D01*
X836142Y73402D01*
X836127Y73344D01*
X836103Y73288D01*
X836088Y73190D01*
X836063Y73095D01*
X836057Y72994D01*
X836053Y72974D01*
X836055Y72962D01*
X836053Y72934D01*
X836053Y70995D01*
X835284Y69138D01*
X833862Y67716D01*
X832005Y66947D01*
X829995Y66947D01*
G37*
%LPD*%
%LPC*%
G36*
X1110297Y121299D02*
X1110297Y121299D01*
X1110296Y121300D01*
X1110296Y301588D01*
X1174000Y301588D01*
X1174001Y301588D01*
X1174001Y121300D01*
X1174000Y121299D01*
X1110297Y121299D01*
G37*
%LPD*%
%LPC*%
G36*
X215495Y83447D02*
X215495Y83447D01*
X213638Y84216D01*
X212216Y85638D01*
X211447Y87495D01*
X211447Y89505D01*
X212216Y91362D01*
X213647Y92793D01*
X213732Y92902D01*
X213821Y93009D01*
X213829Y93028D01*
X213842Y93044D01*
X213897Y93172D01*
X213956Y93297D01*
X213960Y93317D01*
X213968Y93336D01*
X213990Y93474D01*
X214016Y93610D01*
X214015Y93630D01*
X214018Y93650D01*
X214005Y93789D01*
X213996Y93927D01*
X213990Y93946D01*
X213988Y93966D01*
X213941Y94098D01*
X213898Y94229D01*
X213888Y94247D01*
X213881Y94266D01*
X213803Y94381D01*
X213728Y94498D01*
X213713Y94512D01*
X213702Y94529D01*
X213598Y94621D01*
X213497Y94716D01*
X213479Y94726D01*
X213464Y94739D01*
X213340Y94803D01*
X213218Y94870D01*
X213198Y94875D01*
X213180Y94884D01*
X213045Y94914D01*
X212910Y94949D01*
X212882Y94951D01*
X212870Y94954D01*
X212850Y94953D01*
X212749Y94959D01*
X206631Y94959D01*
X206532Y94947D01*
X206433Y94944D01*
X206375Y94927D01*
X206315Y94919D01*
X206223Y94883D01*
X206128Y94855D01*
X206076Y94825D01*
X206019Y94802D01*
X205939Y94744D01*
X205854Y94694D01*
X205779Y94628D01*
X205762Y94616D01*
X205754Y94606D01*
X205733Y94588D01*
X204362Y93216D01*
X202505Y92447D01*
X200495Y92447D01*
X198638Y93216D01*
X197216Y94638D01*
X196447Y96495D01*
X196447Y98505D01*
X197234Y100404D01*
X197247Y100452D01*
X197268Y100497D01*
X197289Y100605D01*
X197318Y100711D01*
X197319Y100761D01*
X197328Y100810D01*
X197321Y100919D01*
X197323Y101029D01*
X197311Y101077D01*
X197308Y101127D01*
X197274Y101231D01*
X197249Y101338D01*
X197226Y101382D01*
X197210Y101429D01*
X197151Y101522D01*
X197100Y101619D01*
X197067Y101656D01*
X197040Y101698D01*
X196960Y101773D01*
X196886Y101855D01*
X196845Y101882D01*
X196808Y101916D01*
X196712Y101969D01*
X196620Y102029D01*
X196573Y102046D01*
X196530Y102070D01*
X196424Y102097D01*
X196320Y102133D01*
X196270Y102137D01*
X196222Y102149D01*
X196061Y102159D01*
X189831Y102159D01*
X189732Y102147D01*
X189633Y102144D01*
X189575Y102127D01*
X189515Y102119D01*
X189423Y102083D01*
X189328Y102055D01*
X189276Y102025D01*
X189219Y102002D01*
X189139Y101944D01*
X189054Y101894D01*
X188979Y101828D01*
X188962Y101816D01*
X188954Y101806D01*
X188933Y101788D01*
X187562Y100416D01*
X185705Y99647D01*
X183695Y99647D01*
X181838Y100416D01*
X180416Y101838D01*
X179647Y103695D01*
X179647Y105705D01*
X180416Y107562D01*
X181838Y108984D01*
X183695Y109753D01*
X185705Y109753D01*
X187562Y108984D01*
X188933Y107612D01*
X189011Y107552D01*
X189084Y107484D01*
X189137Y107455D01*
X189184Y107418D01*
X189275Y107378D01*
X189362Y107330D01*
X189421Y107315D01*
X189476Y107291D01*
X189574Y107276D01*
X189670Y107251D01*
X189770Y107245D01*
X189790Y107241D01*
X189803Y107243D01*
X189831Y107241D01*
X209102Y107241D01*
X209239Y107258D01*
X209378Y107271D01*
X209397Y107278D01*
X209417Y107281D01*
X209546Y107332D01*
X209678Y107379D01*
X209694Y107390D01*
X209713Y107398D01*
X209826Y107479D01*
X209941Y107557D01*
X209954Y107573D01*
X209970Y107584D01*
X210059Y107692D01*
X210151Y107796D01*
X210160Y107814D01*
X210173Y107829D01*
X210233Y107955D01*
X210296Y108079D01*
X210300Y108099D01*
X210309Y108117D01*
X210335Y108254D01*
X210365Y108389D01*
X210365Y108410D01*
X210369Y108429D01*
X210360Y108568D01*
X210356Y108707D01*
X210350Y108727D01*
X210349Y108747D01*
X210306Y108879D01*
X210267Y109013D01*
X210257Y109030D01*
X210251Y109049D01*
X210176Y109167D01*
X210106Y109287D01*
X210087Y109308D01*
X210081Y109318D01*
X210066Y109332D01*
X209999Y109407D01*
X208088Y111319D01*
X150831Y168576D01*
X150753Y168636D01*
X150681Y168704D01*
X150628Y168733D01*
X150580Y168770D01*
X150489Y168810D01*
X150402Y168858D01*
X150344Y168873D01*
X150288Y168897D01*
X150190Y168912D01*
X150095Y168937D01*
X149994Y168943D01*
X149974Y168947D01*
X149962Y168945D01*
X149934Y168947D01*
X147995Y168947D01*
X146138Y169716D01*
X144716Y171138D01*
X143947Y172995D01*
X143947Y175005D01*
X144716Y176862D01*
X146138Y178284D01*
X147995Y179053D01*
X150005Y179053D01*
X151862Y178284D01*
X153284Y176862D01*
X154053Y175005D01*
X154053Y173066D01*
X154065Y172968D01*
X154068Y172869D01*
X154085Y172811D01*
X154093Y172751D01*
X154129Y172659D01*
X154157Y172563D01*
X154187Y172511D01*
X154210Y172455D01*
X154268Y172375D01*
X154318Y172290D01*
X154384Y172214D01*
X154396Y172198D01*
X154406Y172190D01*
X154424Y172169D01*
X161430Y165163D01*
X161540Y165077D01*
X161647Y164989D01*
X161666Y164980D01*
X161682Y164968D01*
X161810Y164912D01*
X161935Y164853D01*
X161955Y164849D01*
X161974Y164841D01*
X162112Y164819D01*
X162247Y164793D01*
X162268Y164795D01*
X162288Y164792D01*
X162427Y164805D01*
X162565Y164813D01*
X162584Y164819D01*
X162604Y164821D01*
X162736Y164869D01*
X162867Y164911D01*
X162884Y164922D01*
X162904Y164929D01*
X163019Y165007D01*
X163136Y165081D01*
X163150Y165096D01*
X163167Y165108D01*
X163259Y165212D01*
X163354Y165313D01*
X163364Y165331D01*
X163377Y165346D01*
X163441Y165470D01*
X163508Y165592D01*
X163513Y165611D01*
X163522Y165629D01*
X163552Y165765D01*
X163587Y165899D01*
X163589Y165928D01*
X163591Y165940D01*
X163591Y165960D01*
X163597Y166060D01*
X163597Y167355D01*
X164366Y169212D01*
X165788Y170634D01*
X167167Y171205D01*
X167211Y171230D01*
X167257Y171246D01*
X167348Y171308D01*
X167444Y171363D01*
X167479Y171397D01*
X167521Y171425D01*
X167593Y171507D01*
X167672Y171584D01*
X167698Y171626D01*
X167731Y171663D01*
X167781Y171761D01*
X167838Y171855D01*
X167853Y171902D01*
X167876Y171947D01*
X167900Y172054D01*
X167932Y172159D01*
X167934Y172209D01*
X167945Y172257D01*
X167942Y172367D01*
X167947Y172477D01*
X167937Y172525D01*
X167936Y172575D01*
X167905Y172681D01*
X167883Y172788D01*
X167861Y172833D01*
X167847Y172880D01*
X167791Y172975D01*
X167743Y173074D01*
X167711Y173112D01*
X167686Y173154D01*
X167579Y173275D01*
X166163Y174692D01*
X165394Y176549D01*
X165394Y178559D01*
X166163Y180416D01*
X167584Y181837D01*
X169441Y182606D01*
X171487Y182606D01*
X171538Y182593D01*
X171683Y182553D01*
X171693Y182553D01*
X171702Y182551D01*
X171862Y182541D01*
X461869Y182541D01*
X461968Y182553D01*
X462067Y182556D01*
X462125Y182573D01*
X462185Y182581D01*
X462277Y182617D01*
X462372Y182645D01*
X462424Y182675D01*
X462481Y182698D01*
X462561Y182756D01*
X462646Y182806D01*
X462721Y182872D01*
X462738Y182884D01*
X462746Y182894D01*
X462767Y182912D01*
X464088Y184233D01*
X464148Y184311D01*
X464216Y184384D01*
X464245Y184437D01*
X464282Y184484D01*
X464322Y184575D01*
X464370Y184662D01*
X464385Y184721D01*
X464409Y184776D01*
X464424Y184874D01*
X464449Y184970D01*
X464455Y185070D01*
X464459Y185090D01*
X464457Y185103D01*
X464459Y185131D01*
X464459Y245194D01*
X464456Y245224D01*
X464458Y245253D01*
X464436Y245381D01*
X464419Y245510D01*
X464408Y245537D01*
X464403Y245567D01*
X464350Y245685D01*
X464302Y245805D01*
X464285Y245829D01*
X464273Y245857D01*
X464191Y245958D01*
X464116Y246063D01*
X464093Y246082D01*
X464074Y246105D01*
X463970Y246183D01*
X463936Y246212D01*
X462293Y247855D01*
X461447Y249895D01*
X461447Y252105D01*
X462293Y254145D01*
X463855Y255707D01*
X465895Y256553D01*
X468124Y256553D01*
X468200Y256532D01*
X468333Y256491D01*
X468353Y256490D01*
X468373Y256485D01*
X468512Y256483D01*
X468650Y256476D01*
X468670Y256480D01*
X468691Y256480D01*
X468826Y256512D01*
X468962Y256540D01*
X468980Y256549D01*
X469000Y256554D01*
X469123Y256619D01*
X469248Y256680D01*
X469263Y256693D01*
X469281Y256703D01*
X469384Y256797D01*
X469490Y256886D01*
X469501Y256903D01*
X469516Y256917D01*
X469593Y257033D01*
X469673Y257146D01*
X469680Y257165D01*
X469691Y257182D01*
X469736Y257314D01*
X469785Y257444D01*
X469788Y257464D01*
X469794Y257483D01*
X469805Y257621D01*
X469821Y257760D01*
X469818Y257780D01*
X469819Y257800D01*
X469796Y257937D01*
X469776Y258075D01*
X469767Y258101D01*
X469765Y258113D01*
X469757Y258132D01*
X469724Y258227D01*
X469447Y258896D01*
X469447Y261105D01*
X470293Y263145D01*
X471855Y264707D01*
X473895Y265553D01*
X476105Y265553D01*
X478145Y264707D01*
X479707Y263145D01*
X480553Y261105D01*
X480553Y258895D01*
X479707Y256855D01*
X478080Y255228D01*
X478048Y255209D01*
X478027Y255189D01*
X478002Y255173D01*
X477913Y255078D01*
X477819Y254988D01*
X477804Y254963D01*
X477784Y254941D01*
X477721Y254827D01*
X477653Y254717D01*
X477645Y254689D01*
X477630Y254663D01*
X477598Y254537D01*
X477560Y254413D01*
X477558Y254383D01*
X477551Y254355D01*
X477541Y254194D01*
X477541Y176860D01*
X472512Y171831D01*
X472452Y171753D01*
X472384Y171681D01*
X472355Y171628D01*
X472318Y171580D01*
X472278Y171489D01*
X472230Y171402D01*
X472215Y171344D01*
X472191Y171288D01*
X472176Y171190D01*
X472151Y171095D01*
X472145Y170994D01*
X472141Y170974D01*
X472143Y170962D01*
X472141Y170934D01*
X472141Y168995D01*
X471372Y167138D01*
X469950Y165716D01*
X468093Y164947D01*
X466083Y164947D01*
X464226Y165716D01*
X462767Y167176D01*
X462689Y167236D01*
X462616Y167304D01*
X462563Y167333D01*
X462516Y167370D01*
X462425Y167410D01*
X462338Y167458D01*
X462279Y167473D01*
X462224Y167497D01*
X462126Y167512D01*
X462030Y167537D01*
X461930Y167543D01*
X461910Y167547D01*
X461897Y167545D01*
X461869Y167547D01*
X174972Y167547D01*
X174854Y167532D01*
X174735Y167525D01*
X174697Y167512D01*
X174656Y167507D01*
X174546Y167464D01*
X174432Y167427D01*
X174398Y167405D01*
X174361Y167390D01*
X174264Y167321D01*
X174164Y167257D01*
X174136Y167227D01*
X174103Y167204D01*
X174027Y167112D01*
X173946Y167025D01*
X173926Y166990D01*
X173901Y166959D01*
X173850Y166851D01*
X173792Y166747D01*
X173782Y166707D01*
X173765Y166671D01*
X173743Y166554D01*
X173713Y166439D01*
X173709Y166379D01*
X173705Y166359D01*
X173706Y166338D01*
X173703Y166278D01*
X173703Y165345D01*
X172933Y163488D01*
X171512Y162067D01*
X169655Y161297D01*
X168360Y161297D01*
X168222Y161280D01*
X168084Y161267D01*
X168065Y161260D01*
X168045Y161257D01*
X167915Y161206D01*
X167784Y161159D01*
X167768Y161148D01*
X167749Y161140D01*
X167637Y161059D01*
X167521Y160981D01*
X167508Y160965D01*
X167491Y160954D01*
X167403Y160847D01*
X167311Y160742D01*
X167302Y160724D01*
X167289Y160709D01*
X167230Y160583D01*
X167166Y160459D01*
X167162Y160439D01*
X167153Y160421D01*
X167127Y160285D01*
X167097Y160149D01*
X167097Y160128D01*
X167093Y160109D01*
X167102Y159970D01*
X167106Y159831D01*
X167112Y159811D01*
X167113Y159791D01*
X167156Y159659D01*
X167195Y159525D01*
X167205Y159508D01*
X167211Y159489D01*
X167285Y159371D01*
X167356Y159251D01*
X167375Y159230D01*
X167381Y159220D01*
X167396Y159206D01*
X167463Y159131D01*
X211681Y114912D01*
X211759Y114852D01*
X211831Y114784D01*
X211884Y114755D01*
X211932Y114718D01*
X212023Y114678D01*
X212110Y114630D01*
X212168Y114615D01*
X212224Y114591D01*
X212322Y114576D01*
X212417Y114551D01*
X212518Y114545D01*
X212538Y114541D01*
X212550Y114543D01*
X212578Y114541D01*
X355869Y114541D01*
X355968Y114553D01*
X356067Y114556D01*
X356125Y114573D01*
X356185Y114581D01*
X356277Y114617D01*
X356372Y114645D01*
X356424Y114675D01*
X356481Y114698D01*
X356561Y114756D01*
X356646Y114806D01*
X356721Y114872D01*
X356738Y114884D01*
X356746Y114894D01*
X356767Y114912D01*
X358138Y116284D01*
X359995Y117053D01*
X362005Y117053D01*
X363862Y116284D01*
X365284Y114862D01*
X366053Y113005D01*
X366053Y110995D01*
X365284Y109138D01*
X363862Y107716D01*
X362005Y106947D01*
X359995Y106947D01*
X358138Y107716D01*
X356767Y109088D01*
X356689Y109148D01*
X356616Y109216D01*
X356563Y109245D01*
X356516Y109282D01*
X356425Y109322D01*
X356338Y109370D01*
X356279Y109385D01*
X356224Y109409D01*
X356126Y109424D01*
X356030Y109449D01*
X355930Y109455D01*
X355910Y109459D01*
X355897Y109457D01*
X355869Y109459D01*
X300751Y109459D01*
X300613Y109442D01*
X300474Y109429D01*
X300455Y109422D01*
X300435Y109419D01*
X300305Y109368D01*
X300175Y109321D01*
X300158Y109310D01*
X300139Y109302D01*
X300027Y109221D01*
X299912Y109143D01*
X299898Y109127D01*
X299882Y109116D01*
X299793Y109008D01*
X299701Y108904D01*
X299692Y108886D01*
X299679Y108871D01*
X299620Y108745D01*
X299557Y108621D01*
X299552Y108601D01*
X299544Y108583D01*
X299518Y108447D01*
X299487Y108311D01*
X299488Y108290D01*
X299484Y108271D01*
X299493Y108132D01*
X299497Y107993D01*
X299502Y107973D01*
X299504Y107953D01*
X299546Y107821D01*
X299585Y107687D01*
X299595Y107670D01*
X299602Y107651D01*
X299676Y107533D01*
X299747Y107413D01*
X299765Y107392D01*
X299772Y107382D01*
X299787Y107368D01*
X299853Y107292D01*
X300284Y106862D01*
X301053Y105005D01*
X301053Y102742D01*
X301056Y102716D01*
X301052Y102633D01*
X301056Y102614D01*
X301056Y102596D01*
X301088Y102459D01*
X301089Y102453D01*
X301093Y102427D01*
X301097Y102416D01*
X301116Y102321D01*
X301125Y102304D01*
X301129Y102286D01*
X301194Y102162D01*
X301256Y102036D01*
X301268Y102021D01*
X301277Y102005D01*
X301371Y101900D01*
X301463Y101794D01*
X301478Y101783D01*
X301490Y101769D01*
X301608Y101691D01*
X301723Y101611D01*
X301740Y101604D01*
X301756Y101594D01*
X301889Y101548D01*
X302020Y101498D01*
X302039Y101496D01*
X302056Y101490D01*
X302196Y101478D01*
X302336Y101463D01*
X302355Y101465D01*
X302373Y101464D01*
X302512Y101487D01*
X302651Y101507D01*
X302676Y101515D01*
X302687Y101517D01*
X302705Y101525D01*
X302803Y101559D01*
X303995Y102053D01*
X306005Y102053D01*
X307862Y101284D01*
X309284Y99862D01*
X310053Y98005D01*
X310053Y95995D01*
X309852Y95510D01*
X309815Y95376D01*
X309774Y95243D01*
X309773Y95223D01*
X309768Y95204D01*
X309766Y95064D01*
X309759Y94926D01*
X309763Y94906D01*
X309763Y94886D01*
X309796Y94750D01*
X309824Y94614D01*
X309832Y94596D01*
X309837Y94576D01*
X309902Y94453D01*
X309963Y94329D01*
X309976Y94313D01*
X309986Y94295D01*
X310079Y94192D01*
X310170Y94087D01*
X310186Y94075D01*
X310200Y94060D01*
X310316Y93983D01*
X310430Y93903D01*
X310449Y93896D01*
X310466Y93885D01*
X310597Y93840D01*
X310727Y93791D01*
X310747Y93789D01*
X310766Y93782D01*
X310905Y93771D01*
X311043Y93756D01*
X311063Y93758D01*
X311083Y93757D01*
X311220Y93781D01*
X311358Y93800D01*
X311385Y93809D01*
X311397Y93811D01*
X311415Y93820D01*
X311510Y93852D01*
X311995Y94053D01*
X314005Y94053D01*
X315862Y93284D01*
X317284Y91862D01*
X318053Y90005D01*
X318053Y87995D01*
X317284Y86138D01*
X315862Y84716D01*
X314005Y83947D01*
X311995Y83947D01*
X310138Y84716D01*
X309267Y85588D01*
X309189Y85648D01*
X309116Y85716D01*
X309063Y85745D01*
X309016Y85782D01*
X308925Y85822D01*
X308838Y85870D01*
X308779Y85885D01*
X308724Y85909D01*
X308626Y85924D01*
X308530Y85949D01*
X308430Y85955D01*
X308410Y85959D01*
X308397Y85957D01*
X308369Y85959D01*
X221631Y85959D01*
X221532Y85947D01*
X221433Y85944D01*
X221375Y85927D01*
X221315Y85919D01*
X221223Y85883D01*
X221128Y85855D01*
X221076Y85825D01*
X221019Y85802D01*
X220939Y85744D01*
X220854Y85694D01*
X220779Y85628D01*
X220762Y85616D01*
X220754Y85606D01*
X220733Y85588D01*
X219362Y84216D01*
X217505Y83447D01*
X215495Y83447D01*
G37*
%LPD*%
%LPC*%
G36*
X908995Y236947D02*
X908995Y236947D01*
X907138Y237716D01*
X905716Y239138D01*
X904947Y240995D01*
X904947Y242934D01*
X904935Y243032D01*
X904932Y243131D01*
X904915Y243189D01*
X904907Y243249D01*
X904871Y243341D01*
X904843Y243437D01*
X904813Y243489D01*
X904790Y243545D01*
X904732Y243625D01*
X904682Y243710D01*
X904616Y243786D01*
X904604Y243802D01*
X904594Y243810D01*
X904576Y243831D01*
X902459Y245948D01*
X902459Y269422D01*
X902447Y269520D01*
X902444Y269619D01*
X902427Y269677D01*
X902419Y269737D01*
X902383Y269829D01*
X902355Y269925D01*
X902325Y269977D01*
X902302Y270033D01*
X902244Y270113D01*
X902194Y270198D01*
X902128Y270274D01*
X902116Y270290D01*
X902106Y270298D01*
X902088Y270319D01*
X899219Y273187D01*
X899110Y273273D01*
X899003Y273361D01*
X898984Y273370D01*
X898968Y273382D01*
X898840Y273438D01*
X898715Y273497D01*
X898695Y273501D01*
X898676Y273509D01*
X898538Y273531D01*
X898402Y273557D01*
X898382Y273555D01*
X898362Y273559D01*
X898223Y273545D01*
X898085Y273537D01*
X898066Y273531D01*
X898046Y273529D01*
X897914Y273482D01*
X897783Y273439D01*
X897765Y273428D01*
X897746Y273421D01*
X897631Y273343D01*
X897514Y273269D01*
X897500Y273254D01*
X897483Y273243D01*
X897391Y273138D01*
X897296Y273037D01*
X897286Y273019D01*
X897273Y273004D01*
X897209Y272880D01*
X897142Y272759D01*
X897137Y272739D01*
X897128Y272721D01*
X897098Y272585D01*
X897063Y272451D01*
X897061Y272423D01*
X897058Y272411D01*
X897059Y272390D01*
X897053Y272290D01*
X897053Y270995D01*
X896284Y269138D01*
X894862Y267716D01*
X893005Y266947D01*
X890995Y266947D01*
X889138Y267716D01*
X887716Y269138D01*
X886947Y270995D01*
X886947Y272934D01*
X886935Y273032D01*
X886932Y273131D01*
X886915Y273189D01*
X886907Y273249D01*
X886871Y273341D01*
X886843Y273437D01*
X886813Y273489D01*
X886790Y273545D01*
X886732Y273625D01*
X886682Y273710D01*
X886616Y273786D01*
X886604Y273802D01*
X886594Y273810D01*
X886576Y273831D01*
X848319Y312088D01*
X848241Y312148D01*
X848169Y312216D01*
X848116Y312245D01*
X848068Y312282D01*
X847977Y312322D01*
X847890Y312370D01*
X847832Y312385D01*
X847776Y312409D01*
X847678Y312424D01*
X847583Y312449D01*
X847482Y312455D01*
X847462Y312459D01*
X847450Y312457D01*
X847422Y312459D01*
X790948Y312459D01*
X789088Y314319D01*
X488831Y614576D01*
X488753Y614636D01*
X488681Y614704D01*
X488628Y614733D01*
X488580Y614770D01*
X488489Y614810D01*
X488402Y614858D01*
X488344Y614873D01*
X488288Y614897D01*
X488190Y614912D01*
X488095Y614937D01*
X487994Y614943D01*
X487974Y614947D01*
X487962Y614945D01*
X487934Y614947D01*
X485995Y614947D01*
X484138Y615716D01*
X482716Y617138D01*
X481947Y618995D01*
X481947Y621005D01*
X482716Y622862D01*
X484138Y624284D01*
X485995Y625053D01*
X488005Y625053D01*
X489862Y624284D01*
X491284Y622862D01*
X491827Y621549D01*
X491896Y621428D01*
X491961Y621305D01*
X491975Y621290D01*
X491985Y621273D01*
X492082Y621173D01*
X492175Y621070D01*
X492192Y621059D01*
X492206Y621044D01*
X492324Y620972D01*
X492441Y620895D01*
X492460Y620889D01*
X492477Y620878D01*
X492610Y620837D01*
X492742Y620792D01*
X492762Y620791D01*
X492781Y620785D01*
X492920Y620778D01*
X493059Y620767D01*
X493079Y620770D01*
X493099Y620769D01*
X493235Y620798D01*
X493372Y620821D01*
X493391Y620830D01*
X493410Y620834D01*
X493535Y620895D01*
X493662Y620952D01*
X493678Y620965D01*
X493696Y620973D01*
X493802Y621064D01*
X493910Y621150D01*
X493923Y621167D01*
X493938Y621180D01*
X494018Y621293D01*
X494102Y621405D01*
X494114Y621430D01*
X494121Y621440D01*
X494128Y621459D01*
X494173Y621549D01*
X494716Y622862D01*
X496138Y624284D01*
X497995Y625053D01*
X500005Y625053D01*
X501862Y624284D01*
X503284Y622862D01*
X504053Y621005D01*
X504053Y619066D01*
X504065Y618968D01*
X504068Y618869D01*
X504085Y618811D01*
X504093Y618751D01*
X504129Y618659D01*
X504157Y618563D01*
X504187Y618511D01*
X504210Y618455D01*
X504268Y618375D01*
X504318Y618290D01*
X504384Y618214D01*
X504396Y618198D01*
X504406Y618190D01*
X504424Y618169D01*
X797681Y324912D01*
X797759Y324852D01*
X797831Y324784D01*
X797884Y324755D01*
X797932Y324718D01*
X798023Y324678D01*
X798110Y324630D01*
X798168Y324615D01*
X798224Y324591D01*
X798322Y324576D01*
X798417Y324551D01*
X798518Y324545D01*
X798538Y324541D01*
X798550Y324543D01*
X798578Y324541D01*
X855052Y324541D01*
X907541Y272052D01*
X907541Y248578D01*
X907553Y248480D01*
X907556Y248381D01*
X907573Y248323D01*
X907581Y248263D01*
X907617Y248171D01*
X907645Y248075D01*
X907675Y248023D01*
X907698Y247967D01*
X907756Y247887D01*
X907806Y247802D01*
X907872Y247726D01*
X907884Y247710D01*
X907894Y247702D01*
X907912Y247681D01*
X908169Y247424D01*
X908247Y247364D01*
X908319Y247296D01*
X908372Y247267D01*
X908420Y247230D01*
X908511Y247190D01*
X908598Y247142D01*
X908656Y247127D01*
X908712Y247103D01*
X908810Y247088D01*
X908905Y247063D01*
X909006Y247057D01*
X909026Y247053D01*
X909038Y247055D01*
X909066Y247053D01*
X911005Y247053D01*
X912862Y246284D01*
X914284Y244862D01*
X915053Y243005D01*
X915053Y240995D01*
X914284Y239138D01*
X912862Y237716D01*
X911005Y236947D01*
X908995Y236947D01*
G37*
%LPD*%
%LPC*%
G36*
X993995Y310947D02*
X993995Y310947D01*
X992138Y311716D01*
X990767Y313088D01*
X990689Y313148D01*
X990616Y313216D01*
X990563Y313245D01*
X990516Y313282D01*
X990425Y313322D01*
X990338Y313370D01*
X990279Y313385D01*
X990224Y313409D01*
X990126Y313424D01*
X990030Y313449D01*
X989930Y313455D01*
X989910Y313459D01*
X989897Y313457D01*
X989869Y313459D01*
X942948Y313459D01*
X935489Y320917D01*
X935434Y320960D01*
X935386Y321010D01*
X935309Y321057D01*
X935238Y321112D01*
X935174Y321140D01*
X935115Y321177D01*
X935029Y321203D01*
X934946Y321239D01*
X934877Y321250D01*
X934811Y321270D01*
X934721Y321274D01*
X934632Y321289D01*
X934563Y321282D01*
X934493Y321285D01*
X934405Y321267D01*
X934316Y321259D01*
X934250Y321235D01*
X934182Y321221D01*
X934101Y321182D01*
X934016Y321151D01*
X933959Y321112D01*
X933896Y321081D01*
X933828Y321023D01*
X933753Y320973D01*
X933707Y320920D01*
X933654Y320875D01*
X933602Y320801D01*
X933543Y320734D01*
X933511Y320672D01*
X933471Y320615D01*
X933439Y320531D01*
X933398Y320451D01*
X933383Y320383D01*
X933358Y320317D01*
X933348Y320228D01*
X933328Y320141D01*
X933331Y320071D01*
X933323Y320001D01*
X933335Y319912D01*
X933338Y319823D01*
X933358Y319756D01*
X933367Y319686D01*
X933419Y319534D01*
X934053Y318005D01*
X934053Y315995D01*
X933284Y314138D01*
X931862Y312716D01*
X930005Y311947D01*
X927995Y311947D01*
X926138Y312716D01*
X924716Y314138D01*
X923947Y315995D01*
X923947Y317934D01*
X923935Y318032D01*
X923932Y318131D01*
X923915Y318189D01*
X923907Y318249D01*
X923871Y318341D01*
X923843Y318437D01*
X923813Y318489D01*
X923790Y318545D01*
X923732Y318625D01*
X923682Y318710D01*
X923616Y318786D01*
X923604Y318802D01*
X923594Y318810D01*
X923576Y318831D01*
X891831Y350576D01*
X891753Y350636D01*
X891681Y350704D01*
X891628Y350733D01*
X891580Y350770D01*
X891489Y350810D01*
X891402Y350858D01*
X891344Y350873D01*
X891288Y350897D01*
X891190Y350912D01*
X891095Y350937D01*
X890994Y350943D01*
X890974Y350947D01*
X890962Y350945D01*
X890934Y350947D01*
X888995Y350947D01*
X887138Y351716D01*
X885716Y353138D01*
X884947Y354995D01*
X884947Y357005D01*
X885716Y358862D01*
X887138Y360284D01*
X888995Y361053D01*
X891005Y361053D01*
X892534Y360419D01*
X892601Y360401D01*
X892666Y360373D01*
X892754Y360359D01*
X892841Y360335D01*
X892911Y360334D01*
X892980Y360323D01*
X893069Y360332D01*
X893159Y360330D01*
X893227Y360347D01*
X893296Y360353D01*
X893381Y360384D01*
X893468Y360404D01*
X893530Y360437D01*
X893596Y360461D01*
X893670Y360511D01*
X893749Y360553D01*
X893801Y360600D01*
X893859Y360639D01*
X893918Y360707D01*
X893985Y360767D01*
X894023Y360825D01*
X894069Y360878D01*
X894110Y360958D01*
X894159Y361033D01*
X894182Y361099D01*
X894214Y361161D01*
X894233Y361249D01*
X894263Y361334D01*
X894268Y361403D01*
X894283Y361471D01*
X894281Y361561D01*
X894288Y361651D01*
X894276Y361719D01*
X894274Y361789D01*
X894249Y361875D01*
X894233Y361964D01*
X894205Y362028D01*
X894185Y362095D01*
X894140Y362172D01*
X894103Y362254D01*
X894059Y362308D01*
X894024Y362369D01*
X893917Y362489D01*
X736831Y519576D01*
X736753Y519636D01*
X736681Y519704D01*
X736628Y519733D01*
X736580Y519770D01*
X736489Y519810D01*
X736402Y519858D01*
X736344Y519873D01*
X736288Y519897D01*
X736190Y519912D01*
X736095Y519937D01*
X735994Y519943D01*
X735974Y519947D01*
X735962Y519945D01*
X735934Y519947D01*
X733995Y519947D01*
X732138Y520716D01*
X730716Y522138D01*
X729947Y523995D01*
X729947Y526005D01*
X730716Y527862D01*
X732138Y529284D01*
X733995Y530053D01*
X734290Y530053D01*
X734427Y530070D01*
X734566Y530083D01*
X734585Y530090D01*
X734605Y530093D01*
X734734Y530144D01*
X734866Y530191D01*
X734882Y530202D01*
X734901Y530210D01*
X735014Y530291D01*
X735129Y530369D01*
X735142Y530385D01*
X735158Y530396D01*
X735247Y530504D01*
X735339Y530608D01*
X735348Y530626D01*
X735361Y530641D01*
X735421Y530767D01*
X735484Y530891D01*
X735488Y530911D01*
X735497Y530929D01*
X735523Y531065D01*
X735553Y531201D01*
X735553Y531222D01*
X735557Y531241D01*
X735548Y531380D01*
X735544Y531519D01*
X735538Y531539D01*
X735537Y531559D01*
X735494Y531691D01*
X735455Y531825D01*
X735445Y531842D01*
X735439Y531861D01*
X735364Y531979D01*
X735294Y532099D01*
X735275Y532120D01*
X735269Y532130D01*
X735254Y532144D01*
X735187Y532219D01*
X732831Y534576D01*
X732753Y534636D01*
X732681Y534704D01*
X732628Y534733D01*
X732580Y534770D01*
X732489Y534810D01*
X732402Y534858D01*
X732344Y534873D01*
X732288Y534897D01*
X732190Y534912D01*
X732095Y534937D01*
X731994Y534943D01*
X731974Y534947D01*
X731962Y534945D01*
X731934Y534947D01*
X729995Y534947D01*
X728138Y535716D01*
X726716Y537138D01*
X725947Y538995D01*
X725947Y541005D01*
X726716Y542862D01*
X728138Y544284D01*
X729995Y545053D01*
X732005Y545053D01*
X733862Y544284D01*
X735284Y542862D01*
X736053Y541005D01*
X736053Y539066D01*
X736065Y538968D01*
X736068Y538869D01*
X736085Y538811D01*
X736093Y538751D01*
X736129Y538659D01*
X736157Y538563D01*
X736187Y538511D01*
X736210Y538455D01*
X736268Y538375D01*
X736318Y538290D01*
X736384Y538214D01*
X736396Y538198D01*
X736406Y538190D01*
X736424Y538169D01*
X948681Y325912D01*
X948759Y325852D01*
X948831Y325784D01*
X948884Y325755D01*
X948932Y325718D01*
X949023Y325678D01*
X949110Y325630D01*
X949168Y325615D01*
X949224Y325591D01*
X949322Y325576D01*
X949417Y325551D01*
X949518Y325545D01*
X949538Y325541D01*
X949550Y325543D01*
X949578Y325541D01*
X1026052Y325541D01*
X1027169Y324424D01*
X1027247Y324364D01*
X1027319Y324296D01*
X1027372Y324267D01*
X1027420Y324230D01*
X1027511Y324190D01*
X1027598Y324142D01*
X1027656Y324127D01*
X1027712Y324103D01*
X1027810Y324088D01*
X1027905Y324063D01*
X1028006Y324057D01*
X1028026Y324053D01*
X1028038Y324055D01*
X1028066Y324053D01*
X1030005Y324053D01*
X1031862Y323284D01*
X1033284Y321862D01*
X1034053Y320005D01*
X1034053Y317995D01*
X1033284Y316138D01*
X1031862Y314716D01*
X1030005Y313947D01*
X1027995Y313947D01*
X1026138Y314716D01*
X1024716Y316138D01*
X1023947Y317995D01*
X1023947Y319190D01*
X1023932Y319308D01*
X1023925Y319427D01*
X1023912Y319465D01*
X1023907Y319506D01*
X1023864Y319616D01*
X1023827Y319729D01*
X1023805Y319764D01*
X1023790Y319801D01*
X1023721Y319897D01*
X1023657Y319998D01*
X1023627Y320026D01*
X1023604Y320059D01*
X1023512Y320135D01*
X1023425Y320216D01*
X1023390Y320236D01*
X1023359Y320261D01*
X1023251Y320312D01*
X1023147Y320370D01*
X1023107Y320380D01*
X1023071Y320397D01*
X1022954Y320419D01*
X1022839Y320449D01*
X1022779Y320453D01*
X1022759Y320457D01*
X1022738Y320455D01*
X1022678Y320459D01*
X1000522Y320459D01*
X1000472Y320453D01*
X1000423Y320455D01*
X1000315Y320433D01*
X1000206Y320419D01*
X1000160Y320401D01*
X1000111Y320391D01*
X1000012Y320343D01*
X999910Y320302D01*
X999870Y320273D01*
X999825Y320251D01*
X999742Y320180D01*
X999653Y320116D01*
X999621Y320077D01*
X999583Y320045D01*
X999520Y319955D01*
X999450Y319871D01*
X999429Y319826D01*
X999400Y319785D01*
X999361Y319682D01*
X999315Y319583D01*
X999305Y319534D01*
X999288Y319488D01*
X999275Y319378D01*
X999255Y319271D01*
X999258Y319221D01*
X999252Y319172D01*
X999268Y319063D01*
X999275Y318953D01*
X999290Y318906D01*
X999297Y318857D01*
X999349Y318704D01*
X1000053Y317005D01*
X1000053Y314995D01*
X999284Y313138D01*
X997862Y311716D01*
X996005Y310947D01*
X993995Y310947D01*
G37*
%LPD*%
%LPC*%
G36*
X645995Y323947D02*
X645995Y323947D01*
X644138Y324716D01*
X642716Y326138D01*
X641947Y327995D01*
X641947Y329934D01*
X641935Y330032D01*
X641932Y330131D01*
X641915Y330189D01*
X641907Y330249D01*
X641871Y330341D01*
X641843Y330437D01*
X641813Y330489D01*
X641790Y330545D01*
X641732Y330625D01*
X641682Y330710D01*
X641616Y330786D01*
X641604Y330802D01*
X641594Y330810D01*
X641576Y330831D01*
X473319Y499088D01*
X471459Y500948D01*
X471459Y597869D01*
X471447Y597968D01*
X471444Y598067D01*
X471427Y598125D01*
X471419Y598185D01*
X471383Y598277D01*
X471355Y598372D01*
X471325Y598424D01*
X471302Y598481D01*
X471244Y598561D01*
X471194Y598646D01*
X471128Y598721D01*
X471116Y598738D01*
X471106Y598746D01*
X471088Y598767D01*
X469716Y600138D01*
X468947Y601995D01*
X468947Y604005D01*
X469716Y605862D01*
X471138Y607284D01*
X472995Y608053D01*
X475005Y608053D01*
X476862Y607284D01*
X478284Y605862D01*
X479053Y604005D01*
X479053Y601995D01*
X478284Y600138D01*
X476912Y598767D01*
X476852Y598689D01*
X476784Y598616D01*
X476755Y598563D01*
X476718Y598516D01*
X476678Y598425D01*
X476630Y598338D01*
X476615Y598279D01*
X476591Y598224D01*
X476576Y598126D01*
X476551Y598030D01*
X476545Y597930D01*
X476541Y597910D01*
X476543Y597897D01*
X476541Y597869D01*
X476541Y503578D01*
X476553Y503480D01*
X476556Y503381D01*
X476573Y503323D01*
X476581Y503263D01*
X476617Y503171D01*
X476645Y503075D01*
X476675Y503023D01*
X476698Y502967D01*
X476756Y502887D01*
X476806Y502801D01*
X476872Y502726D01*
X476884Y502710D01*
X476894Y502702D01*
X476912Y502681D01*
X645169Y334424D01*
X645247Y334364D01*
X645319Y334296D01*
X645372Y334267D01*
X645420Y334230D01*
X645511Y334190D01*
X645598Y334142D01*
X645656Y334127D01*
X645712Y334103D01*
X645810Y334088D01*
X645905Y334063D01*
X646006Y334057D01*
X646026Y334053D01*
X646038Y334055D01*
X646066Y334053D01*
X648005Y334053D01*
X649862Y333284D01*
X651284Y331862D01*
X652053Y330005D01*
X652053Y327995D01*
X651284Y326138D01*
X649862Y324716D01*
X648005Y323947D01*
X645995Y323947D01*
G37*
%LPD*%
%LPC*%
G36*
X68594Y111085D02*
X68594Y111085D01*
X66071Y112130D01*
X64140Y114061D01*
X63851Y114760D01*
X63844Y114773D01*
X63842Y114779D01*
X63828Y114800D01*
X63826Y114803D01*
X63809Y114850D01*
X63748Y114941D01*
X63693Y115036D01*
X63659Y115072D01*
X63631Y115113D01*
X63549Y115186D01*
X63472Y115265D01*
X63430Y115291D01*
X63392Y115324D01*
X63295Y115374D01*
X63201Y115431D01*
X63153Y115446D01*
X63109Y115468D01*
X63002Y115492D01*
X62897Y115525D01*
X62847Y115527D01*
X62799Y115538D01*
X62689Y115535D01*
X62579Y115540D01*
X62531Y115530D01*
X62481Y115528D01*
X62376Y115498D01*
X62268Y115476D01*
X62223Y115454D01*
X62176Y115440D01*
X62081Y115384D01*
X61982Y115336D01*
X61944Y115304D01*
X61902Y115278D01*
X61781Y115172D01*
X61703Y115094D01*
X58905Y113935D01*
X43695Y113935D01*
X40897Y115095D01*
X38755Y117237D01*
X37595Y120035D01*
X37595Y123065D01*
X38755Y125863D01*
X40897Y128005D01*
X43695Y129165D01*
X47490Y129165D01*
X47608Y129180D01*
X47727Y129187D01*
X47765Y129200D01*
X47806Y129205D01*
X47916Y129248D01*
X48029Y129285D01*
X48064Y129307D01*
X48101Y129322D01*
X48197Y129391D01*
X48298Y129455D01*
X48326Y129485D01*
X48359Y129508D01*
X48435Y129600D01*
X48516Y129687D01*
X48536Y129722D01*
X48561Y129753D01*
X48612Y129861D01*
X48670Y129965D01*
X48680Y130005D01*
X48697Y130041D01*
X48719Y130158D01*
X48749Y130273D01*
X48753Y130333D01*
X48757Y130353D01*
X48755Y130374D01*
X48759Y130434D01*
X48759Y177766D01*
X48744Y177884D01*
X48737Y178003D01*
X48724Y178041D01*
X48719Y178082D01*
X48676Y178192D01*
X48639Y178305D01*
X48617Y178340D01*
X48602Y178377D01*
X48533Y178473D01*
X48469Y178574D01*
X48439Y178602D01*
X48416Y178635D01*
X48324Y178711D01*
X48237Y178792D01*
X48202Y178812D01*
X48171Y178837D01*
X48063Y178888D01*
X47959Y178946D01*
X47919Y178956D01*
X47883Y178973D01*
X47766Y178995D01*
X47651Y179025D01*
X47591Y179029D01*
X47571Y179033D01*
X47550Y179031D01*
X47490Y179035D01*
X43695Y179035D01*
X40897Y180195D01*
X38755Y182337D01*
X37595Y185135D01*
X37595Y188165D01*
X38755Y190963D01*
X40897Y193105D01*
X43695Y194265D01*
X58905Y194265D01*
X61734Y193093D01*
X61797Y193034D01*
X61850Y193005D01*
X61898Y192968D01*
X61989Y192928D01*
X62075Y192880D01*
X62134Y192865D01*
X62190Y192841D01*
X62287Y192826D01*
X62383Y192801D01*
X62483Y192795D01*
X62504Y192791D01*
X62516Y192793D01*
X62544Y192791D01*
X62734Y192791D01*
X62763Y192794D01*
X62793Y192792D01*
X62921Y192814D01*
X63050Y192831D01*
X63077Y192841D01*
X63106Y192846D01*
X63225Y192900D01*
X63345Y192948D01*
X63369Y192965D01*
X63396Y192977D01*
X63498Y193058D01*
X63603Y193134D01*
X63621Y193157D01*
X63644Y193176D01*
X63723Y193279D01*
X63805Y193379D01*
X63818Y193406D01*
X63836Y193430D01*
X63907Y193574D01*
X64140Y194139D01*
X66071Y196070D01*
X68594Y197115D01*
X82006Y197115D01*
X84529Y196070D01*
X86460Y194139D01*
X87505Y191616D01*
X87505Y188884D01*
X86460Y186361D01*
X84529Y184430D01*
X82006Y183385D01*
X68594Y183385D01*
X66084Y184425D01*
X65970Y184456D01*
X65857Y184495D01*
X65817Y184498D01*
X65778Y184509D01*
X65658Y184511D01*
X65540Y184520D01*
X65500Y184513D01*
X65460Y184514D01*
X65344Y184486D01*
X65227Y184466D01*
X65190Y184449D01*
X65150Y184440D01*
X65045Y184384D01*
X64937Y184335D01*
X64905Y184310D01*
X64869Y184291D01*
X64781Y184211D01*
X64688Y184137D01*
X64664Y184104D01*
X64634Y184077D01*
X64568Y183978D01*
X64497Y183883D01*
X64470Y183829D01*
X64459Y183812D01*
X64452Y183792D01*
X64426Y183738D01*
X63845Y182337D01*
X61703Y180195D01*
X58905Y179035D01*
X55110Y179035D01*
X54992Y179020D01*
X54873Y179013D01*
X54835Y179000D01*
X54794Y178995D01*
X54684Y178952D01*
X54571Y178915D01*
X54536Y178893D01*
X54499Y178878D01*
X54403Y178809D01*
X54302Y178745D01*
X54274Y178715D01*
X54241Y178692D01*
X54165Y178600D01*
X54084Y178513D01*
X54064Y178478D01*
X54039Y178447D01*
X53988Y178339D01*
X53930Y178235D01*
X53920Y178195D01*
X53903Y178159D01*
X53881Y178042D01*
X53851Y177927D01*
X53847Y177867D01*
X53843Y177847D01*
X53845Y177826D01*
X53841Y177766D01*
X53841Y130434D01*
X53856Y130316D01*
X53863Y130197D01*
X53876Y130159D01*
X53881Y130118D01*
X53924Y130008D01*
X53961Y129895D01*
X53983Y129860D01*
X53998Y129823D01*
X54067Y129727D01*
X54131Y129626D01*
X54161Y129598D01*
X54184Y129565D01*
X54276Y129489D01*
X54363Y129408D01*
X54398Y129388D01*
X54429Y129363D01*
X54537Y129312D01*
X54641Y129254D01*
X54681Y129244D01*
X54717Y129227D01*
X54834Y129205D01*
X54949Y129175D01*
X55009Y129171D01*
X55029Y129167D01*
X55050Y129169D01*
X55110Y129165D01*
X58905Y129165D01*
X61703Y128005D01*
X63845Y125863D01*
X64255Y124874D01*
X64270Y124849D01*
X64279Y124821D01*
X64348Y124711D01*
X64413Y124598D01*
X64433Y124577D01*
X64449Y124552D01*
X64544Y124463D01*
X64634Y124370D01*
X64659Y124354D01*
X64681Y124334D01*
X64794Y124271D01*
X64905Y124203D01*
X64933Y124195D01*
X64959Y124180D01*
X65085Y124148D01*
X65209Y124110D01*
X65239Y124108D01*
X65267Y124101D01*
X65428Y124091D01*
X66594Y124091D01*
X66603Y124092D01*
X66613Y124091D01*
X66761Y124112D01*
X66910Y124131D01*
X66918Y124134D01*
X66928Y124135D01*
X67080Y124187D01*
X68594Y124815D01*
X82006Y124815D01*
X84529Y123770D01*
X86460Y121839D01*
X87505Y119316D01*
X87505Y116584D01*
X86460Y114061D01*
X84529Y112130D01*
X82006Y111085D01*
X68594Y111085D01*
G37*
%LPD*%
%LPC*%
G36*
X1065995Y171947D02*
X1065995Y171947D01*
X1064138Y172716D01*
X1062716Y174138D01*
X1061947Y175995D01*
X1061947Y178005D01*
X1062716Y179862D01*
X1064088Y181233D01*
X1064148Y181311D01*
X1064216Y181384D01*
X1064245Y181437D01*
X1064282Y181484D01*
X1064322Y181575D01*
X1064370Y181662D01*
X1064385Y181721D01*
X1064409Y181776D01*
X1064424Y181874D01*
X1064449Y181970D01*
X1064455Y182070D01*
X1064459Y182090D01*
X1064457Y182103D01*
X1064459Y182131D01*
X1064459Y340481D01*
X1064447Y340579D01*
X1064444Y340678D01*
X1064427Y340737D01*
X1064419Y340797D01*
X1064383Y340889D01*
X1064355Y340984D01*
X1064325Y341036D01*
X1064302Y341092D01*
X1064244Y341172D01*
X1064194Y341258D01*
X1064128Y341333D01*
X1064116Y341350D01*
X1064106Y341357D01*
X1064088Y341379D01*
X1049137Y356329D01*
X1049137Y411730D01*
X1067576Y430169D01*
X1067636Y430247D01*
X1067704Y430319D01*
X1067733Y430372D01*
X1067770Y430420D01*
X1067810Y430511D01*
X1067858Y430598D01*
X1067873Y430656D01*
X1067897Y430712D01*
X1067912Y430810D01*
X1067937Y430905D01*
X1067943Y431006D01*
X1067947Y431026D01*
X1067945Y431038D01*
X1067947Y431066D01*
X1067947Y433005D01*
X1068716Y434862D01*
X1070138Y436284D01*
X1071995Y437053D01*
X1074005Y437053D01*
X1075862Y436284D01*
X1077284Y434862D01*
X1078053Y433005D01*
X1078053Y430995D01*
X1077284Y429138D01*
X1075862Y427716D01*
X1074005Y426947D01*
X1072066Y426947D01*
X1071968Y426935D01*
X1071869Y426932D01*
X1071811Y426915D01*
X1071751Y426907D01*
X1071659Y426871D01*
X1071563Y426843D01*
X1071511Y426813D01*
X1071455Y426790D01*
X1071375Y426732D01*
X1071290Y426682D01*
X1071214Y426616D01*
X1071198Y426604D01*
X1071190Y426594D01*
X1071169Y426576D01*
X1054590Y409997D01*
X1054530Y409919D01*
X1054462Y409847D01*
X1054433Y409794D01*
X1054396Y409746D01*
X1054356Y409655D01*
X1054308Y409568D01*
X1054293Y409510D01*
X1054269Y409454D01*
X1054254Y409356D01*
X1054229Y409261D01*
X1054223Y409160D01*
X1054219Y409140D01*
X1054221Y409128D01*
X1054219Y409100D01*
X1054219Y358959D01*
X1054231Y358861D01*
X1054234Y358762D01*
X1054251Y358704D01*
X1054259Y358644D01*
X1054295Y358552D01*
X1054323Y358457D01*
X1054353Y358405D01*
X1054376Y358348D01*
X1054434Y358268D01*
X1054484Y358183D01*
X1054550Y358107D01*
X1054562Y358091D01*
X1054572Y358083D01*
X1054590Y358062D01*
X1069541Y343112D01*
X1069541Y182131D01*
X1069553Y182032D01*
X1069556Y181933D01*
X1069573Y181875D01*
X1069581Y181815D01*
X1069617Y181723D01*
X1069645Y181628D01*
X1069675Y181576D01*
X1069698Y181519D01*
X1069756Y181439D01*
X1069806Y181354D01*
X1069872Y181279D01*
X1069884Y181262D01*
X1069894Y181254D01*
X1069912Y181233D01*
X1071284Y179862D01*
X1072053Y178005D01*
X1072053Y175995D01*
X1071284Y174138D01*
X1069862Y172716D01*
X1068005Y171947D01*
X1065995Y171947D01*
G37*
%LPD*%
%LPC*%
G36*
X866234Y638039D02*
X866234Y638039D01*
X860845Y640271D01*
X856721Y644395D01*
X854489Y649784D01*
X854489Y655616D01*
X856721Y661005D01*
X860845Y665129D01*
X866234Y667361D01*
X872066Y667361D01*
X877455Y665129D01*
X881453Y661131D01*
X881547Y661058D01*
X881636Y660979D01*
X881672Y660961D01*
X881704Y660936D01*
X881813Y660889D01*
X881919Y660835D01*
X881958Y660826D01*
X881996Y660810D01*
X882113Y660791D01*
X882229Y660765D01*
X882270Y660766D01*
X882310Y660760D01*
X882428Y660771D01*
X882547Y660775D01*
X882586Y660786D01*
X882626Y660790D01*
X882739Y660830D01*
X882853Y660863D01*
X882888Y660883D01*
X882926Y660897D01*
X883024Y660964D01*
X883127Y661025D01*
X883172Y661064D01*
X883189Y661076D01*
X883202Y661091D01*
X883248Y661131D01*
X887245Y665129D01*
X892634Y667361D01*
X898466Y667361D01*
X903855Y665129D01*
X907979Y661005D01*
X910211Y655616D01*
X910211Y649784D01*
X907979Y644395D01*
X903855Y640271D01*
X898466Y638039D01*
X892634Y638039D01*
X887245Y640271D01*
X883248Y644269D01*
X883153Y644342D01*
X883064Y644421D01*
X883028Y644439D01*
X882996Y644464D01*
X882887Y644511D01*
X882781Y644565D01*
X882742Y644574D01*
X882704Y644590D01*
X882587Y644609D01*
X882471Y644635D01*
X882430Y644634D01*
X882390Y644640D01*
X882272Y644629D01*
X882153Y644625D01*
X882114Y644614D01*
X882074Y644610D01*
X881961Y644570D01*
X881847Y644537D01*
X881813Y644517D01*
X881774Y644503D01*
X881676Y644436D01*
X881573Y644376D01*
X881528Y644336D01*
X881511Y644324D01*
X881498Y644309D01*
X881453Y644269D01*
X877455Y640271D01*
X872066Y638039D01*
X866234Y638039D01*
G37*
%LPD*%
%LPC*%
G36*
X434995Y185947D02*
X434995Y185947D01*
X433138Y186716D01*
X431716Y188138D01*
X430947Y189995D01*
X430947Y191934D01*
X430935Y192032D01*
X430932Y192131D01*
X430915Y192189D01*
X430907Y192249D01*
X430871Y192341D01*
X430843Y192437D01*
X430813Y192489D01*
X430790Y192545D01*
X430732Y192625D01*
X430682Y192710D01*
X430616Y192786D01*
X430604Y192802D01*
X430594Y192810D01*
X430576Y192831D01*
X354319Y269088D01*
X354241Y269148D01*
X354169Y269216D01*
X354116Y269245D01*
X354068Y269282D01*
X353977Y269322D01*
X353890Y269370D01*
X353832Y269385D01*
X353776Y269409D01*
X353678Y269424D01*
X353583Y269449D01*
X353482Y269455D01*
X353462Y269459D01*
X353450Y269457D01*
X353422Y269459D01*
X316131Y269459D01*
X316032Y269447D01*
X315933Y269444D01*
X315875Y269427D01*
X315815Y269419D01*
X315723Y269383D01*
X315628Y269355D01*
X315576Y269325D01*
X315519Y269302D01*
X315439Y269244D01*
X315354Y269194D01*
X315279Y269128D01*
X315262Y269116D01*
X315254Y269106D01*
X315233Y269088D01*
X313862Y267716D01*
X312005Y266947D01*
X309995Y266947D01*
X308138Y267716D01*
X306716Y269138D01*
X305947Y270995D01*
X305947Y273005D01*
X306716Y274862D01*
X308138Y276284D01*
X309995Y277053D01*
X312005Y277053D01*
X313862Y276284D01*
X315233Y274912D01*
X315311Y274852D01*
X315384Y274784D01*
X315437Y274755D01*
X315484Y274718D01*
X315575Y274678D01*
X315662Y274630D01*
X315721Y274615D01*
X315776Y274591D01*
X315874Y274576D01*
X315970Y274551D01*
X316070Y274545D01*
X316090Y274541D01*
X316103Y274543D01*
X316131Y274541D01*
X356052Y274541D01*
X434169Y196424D01*
X434247Y196364D01*
X434319Y196296D01*
X434372Y196267D01*
X434420Y196230D01*
X434511Y196190D01*
X434598Y196142D01*
X434656Y196127D01*
X434712Y196103D01*
X434810Y196088D01*
X434905Y196063D01*
X435006Y196057D01*
X435026Y196053D01*
X435038Y196055D01*
X435066Y196053D01*
X437005Y196053D01*
X438862Y195284D01*
X440284Y193862D01*
X441053Y192005D01*
X441053Y189995D01*
X440284Y188138D01*
X438862Y186716D01*
X437005Y185947D01*
X434995Y185947D01*
G37*
%LPD*%
%LPC*%
G36*
X935134Y638039D02*
X935134Y638039D01*
X929745Y640271D01*
X925621Y644395D01*
X923389Y649784D01*
X923389Y655616D01*
X925621Y661005D01*
X929745Y665129D01*
X935134Y667361D01*
X940966Y667361D01*
X946355Y665129D01*
X950479Y661005D01*
X952711Y655616D01*
X952711Y649784D01*
X950479Y644395D01*
X946355Y640271D01*
X940966Y638039D01*
X935134Y638039D01*
G37*
%LPD*%
%LPC*%
G36*
X823734Y638039D02*
X823734Y638039D01*
X818345Y640271D01*
X814221Y644395D01*
X811989Y649784D01*
X811989Y655616D01*
X814221Y661005D01*
X818345Y665129D01*
X823734Y667361D01*
X829566Y667361D01*
X834955Y665129D01*
X839079Y661005D01*
X841311Y655616D01*
X841311Y649784D01*
X839079Y644395D01*
X834955Y640271D01*
X829566Y638039D01*
X823734Y638039D01*
G37*
%LPD*%
%LPC*%
G36*
X944995Y191947D02*
X944995Y191947D01*
X943138Y192716D01*
X941716Y194138D01*
X940947Y195995D01*
X940947Y198005D01*
X941716Y199862D01*
X943138Y201284D01*
X944995Y202053D01*
X946934Y202053D01*
X947032Y202065D01*
X947131Y202068D01*
X947189Y202085D01*
X947249Y202093D01*
X947341Y202129D01*
X947437Y202157D01*
X947489Y202187D01*
X947545Y202210D01*
X947625Y202268D01*
X947710Y202318D01*
X947786Y202384D01*
X947802Y202396D01*
X947810Y202406D01*
X947831Y202424D01*
X1008088Y262681D01*
X1008148Y262759D01*
X1008216Y262831D01*
X1008245Y262884D01*
X1008282Y262932D01*
X1008322Y263023D01*
X1008370Y263110D01*
X1008385Y263168D01*
X1008409Y263224D01*
X1008424Y263322D01*
X1008449Y263417D01*
X1008455Y263518D01*
X1008459Y263538D01*
X1008457Y263550D01*
X1008459Y263578D01*
X1008459Y272869D01*
X1008447Y272968D01*
X1008444Y273067D01*
X1008427Y273125D01*
X1008419Y273185D01*
X1008383Y273277D01*
X1008355Y273372D01*
X1008325Y273424D01*
X1008302Y273481D01*
X1008244Y273561D01*
X1008194Y273646D01*
X1008128Y273721D01*
X1008116Y273738D01*
X1008106Y273746D01*
X1008088Y273767D01*
X1006716Y275138D01*
X1005947Y276995D01*
X1005947Y279005D01*
X1006716Y280862D01*
X1008138Y282284D01*
X1009995Y283053D01*
X1012005Y283053D01*
X1013862Y282284D01*
X1015284Y280862D01*
X1016053Y279005D01*
X1016053Y276995D01*
X1015284Y275138D01*
X1013912Y273767D01*
X1013852Y273689D01*
X1013784Y273616D01*
X1013755Y273563D01*
X1013718Y273516D01*
X1013678Y273425D01*
X1013630Y273338D01*
X1013615Y273279D01*
X1013591Y273224D01*
X1013576Y273126D01*
X1013551Y273030D01*
X1013545Y272930D01*
X1013541Y272910D01*
X1013543Y272897D01*
X1013541Y272869D01*
X1013541Y260948D01*
X951424Y198831D01*
X951364Y198753D01*
X951296Y198681D01*
X951267Y198628D01*
X951230Y198580D01*
X951190Y198489D01*
X951142Y198402D01*
X951127Y198344D01*
X951103Y198288D01*
X951088Y198190D01*
X951063Y198095D01*
X951057Y197994D01*
X951053Y197974D01*
X951055Y197962D01*
X951053Y197934D01*
X951053Y195995D01*
X950284Y194138D01*
X948862Y192716D01*
X947005Y191947D01*
X944995Y191947D01*
G37*
%LPD*%
%LPC*%
G36*
X685995Y66947D02*
X685995Y66947D01*
X684138Y67716D01*
X682716Y69138D01*
X681947Y70995D01*
X681947Y73005D01*
X682716Y74862D01*
X684138Y76284D01*
X685995Y77053D01*
X687934Y77053D01*
X688032Y77065D01*
X688131Y77068D01*
X688189Y77085D01*
X688249Y77093D01*
X688341Y77129D01*
X688437Y77157D01*
X688489Y77187D01*
X688545Y77210D01*
X688625Y77268D01*
X688710Y77318D01*
X688786Y77384D01*
X688802Y77396D01*
X688810Y77406D01*
X688831Y77424D01*
X712088Y100681D01*
X712148Y100759D01*
X712216Y100831D01*
X712245Y100884D01*
X712282Y100932D01*
X712322Y101023D01*
X712370Y101110D01*
X712385Y101168D01*
X712409Y101224D01*
X712424Y101322D01*
X712449Y101417D01*
X712455Y101517D01*
X712459Y101538D01*
X712457Y101550D01*
X712459Y101578D01*
X712459Y160869D01*
X712447Y160968D01*
X712444Y161067D01*
X712427Y161125D01*
X712419Y161185D01*
X712383Y161277D01*
X712355Y161372D01*
X712325Y161424D01*
X712302Y161481D01*
X712244Y161561D01*
X712194Y161646D01*
X712128Y161721D01*
X712116Y161738D01*
X712106Y161746D01*
X712088Y161767D01*
X710716Y163138D01*
X709947Y164995D01*
X709947Y167005D01*
X710716Y168862D01*
X712138Y170284D01*
X713995Y171053D01*
X716005Y171053D01*
X717862Y170284D01*
X719284Y168862D01*
X720053Y167005D01*
X720053Y164995D01*
X719284Y163138D01*
X717912Y161767D01*
X717852Y161689D01*
X717784Y161616D01*
X717755Y161563D01*
X717718Y161516D01*
X717678Y161425D01*
X717630Y161338D01*
X717615Y161279D01*
X717591Y161224D01*
X717576Y161126D01*
X717551Y161030D01*
X717545Y160930D01*
X717541Y160910D01*
X717543Y160897D01*
X717541Y160869D01*
X717541Y98948D01*
X692424Y73831D01*
X692364Y73753D01*
X692296Y73681D01*
X692267Y73628D01*
X692230Y73580D01*
X692190Y73489D01*
X692142Y73402D01*
X692127Y73344D01*
X692103Y73288D01*
X692088Y73190D01*
X692063Y73095D01*
X692057Y72994D01*
X692053Y72974D01*
X692055Y72962D01*
X692053Y72934D01*
X692053Y70995D01*
X691284Y69138D01*
X689862Y67716D01*
X688005Y66947D01*
X685995Y66947D01*
G37*
%LPD*%
%LPC*%
G36*
X562995Y618947D02*
X562995Y618947D01*
X561138Y619716D01*
X559716Y621138D01*
X558947Y622995D01*
X558947Y625005D01*
X559716Y626862D01*
X561138Y628284D01*
X562995Y629053D01*
X565005Y629053D01*
X566862Y628284D01*
X568233Y626912D01*
X568311Y626852D01*
X568384Y626784D01*
X568437Y626755D01*
X568484Y626718D01*
X568575Y626678D01*
X568662Y626630D01*
X568721Y626615D01*
X568776Y626591D01*
X568874Y626576D01*
X568970Y626551D01*
X569070Y626545D01*
X569090Y626541D01*
X569103Y626543D01*
X569131Y626541D01*
X659869Y626541D01*
X659968Y626553D01*
X660067Y626556D01*
X660125Y626573D01*
X660185Y626581D01*
X660277Y626617D01*
X660372Y626645D01*
X660424Y626675D01*
X660481Y626698D01*
X660561Y626756D01*
X660646Y626806D01*
X660721Y626872D01*
X660738Y626884D01*
X660746Y626894D01*
X660767Y626912D01*
X662138Y628284D01*
X663995Y629053D01*
X666005Y629053D01*
X667862Y628284D01*
X669284Y626862D01*
X670053Y625005D01*
X670053Y622995D01*
X669284Y621138D01*
X667862Y619716D01*
X666005Y618947D01*
X663995Y618947D01*
X662138Y619716D01*
X660767Y621088D01*
X660689Y621148D01*
X660616Y621216D01*
X660563Y621245D01*
X660516Y621282D01*
X660425Y621322D01*
X660338Y621370D01*
X660279Y621385D01*
X660224Y621409D01*
X660126Y621424D01*
X660030Y621449D01*
X659930Y621455D01*
X659910Y621459D01*
X659897Y621457D01*
X659869Y621459D01*
X569131Y621459D01*
X569032Y621447D01*
X568933Y621444D01*
X568875Y621427D01*
X568815Y621419D01*
X568723Y621383D01*
X568628Y621355D01*
X568576Y621325D01*
X568519Y621302D01*
X568439Y621244D01*
X568354Y621194D01*
X568279Y621128D01*
X568262Y621116D01*
X568254Y621106D01*
X568233Y621088D01*
X566862Y619716D01*
X565005Y618947D01*
X562995Y618947D01*
G37*
%LPD*%
%LPC*%
G36*
X902995Y459947D02*
X902995Y459947D01*
X901138Y460716D01*
X899716Y462138D01*
X898947Y463995D01*
X898947Y466005D01*
X899716Y467862D01*
X901138Y469284D01*
X902995Y470053D01*
X904934Y470053D01*
X905032Y470065D01*
X905131Y470068D01*
X905189Y470085D01*
X905249Y470093D01*
X905341Y470129D01*
X905437Y470157D01*
X905489Y470187D01*
X905545Y470210D01*
X905625Y470268D01*
X905710Y470318D01*
X905786Y470384D01*
X905802Y470396D01*
X905810Y470406D01*
X905831Y470424D01*
X955576Y520169D01*
X955636Y520247D01*
X955704Y520319D01*
X955733Y520372D01*
X955770Y520420D01*
X955810Y520511D01*
X955858Y520598D01*
X955873Y520656D01*
X955897Y520712D01*
X955912Y520810D01*
X955937Y520905D01*
X955943Y521006D01*
X955947Y521026D01*
X955945Y521038D01*
X955947Y521066D01*
X955947Y523005D01*
X956716Y524862D01*
X958138Y526284D01*
X959995Y527053D01*
X962005Y527053D01*
X963862Y526284D01*
X965284Y524862D01*
X966053Y523005D01*
X966053Y520995D01*
X965284Y519138D01*
X963862Y517716D01*
X962005Y516947D01*
X960066Y516947D01*
X959968Y516935D01*
X959869Y516932D01*
X959811Y516915D01*
X959751Y516907D01*
X959659Y516871D01*
X959563Y516843D01*
X959511Y516813D01*
X959455Y516790D01*
X959375Y516732D01*
X959290Y516682D01*
X959214Y516616D01*
X959198Y516604D01*
X959190Y516594D01*
X959169Y516576D01*
X909424Y466831D01*
X909364Y466753D01*
X909296Y466681D01*
X909267Y466628D01*
X909230Y466580D01*
X909190Y466489D01*
X909142Y466402D01*
X909127Y466344D01*
X909103Y466288D01*
X909088Y466190D01*
X909063Y466095D01*
X909057Y465994D01*
X909053Y465974D01*
X909055Y465962D01*
X909053Y465934D01*
X909053Y463995D01*
X908284Y462138D01*
X906862Y460716D01*
X905005Y459947D01*
X902995Y459947D01*
G37*
%LPD*%
%LPC*%
G36*
X815995Y229947D02*
X815995Y229947D01*
X814138Y230716D01*
X812716Y232138D01*
X811947Y233995D01*
X811947Y236005D01*
X812716Y237862D01*
X814088Y239233D01*
X814148Y239311D01*
X814216Y239384D01*
X814245Y239437D01*
X814282Y239484D01*
X814322Y239575D01*
X814370Y239662D01*
X814385Y239721D01*
X814409Y239776D01*
X814424Y239874D01*
X814449Y239970D01*
X814455Y240070D01*
X814459Y240090D01*
X814457Y240103D01*
X814459Y240131D01*
X814459Y269052D01*
X843576Y298169D01*
X843636Y298247D01*
X843704Y298319D01*
X843733Y298372D01*
X843770Y298420D01*
X843810Y298511D01*
X843858Y298598D01*
X843873Y298656D01*
X843897Y298712D01*
X843912Y298810D01*
X843937Y298905D01*
X843943Y299006D01*
X843947Y299026D01*
X843945Y299038D01*
X843947Y299066D01*
X843947Y301005D01*
X844716Y302862D01*
X846138Y304284D01*
X847995Y305053D01*
X850005Y305053D01*
X851862Y304284D01*
X853284Y302862D01*
X854053Y301005D01*
X854053Y298995D01*
X853284Y297138D01*
X851862Y295716D01*
X850005Y294947D01*
X848066Y294947D01*
X847968Y294935D01*
X847869Y294932D01*
X847811Y294915D01*
X847751Y294907D01*
X847659Y294871D01*
X847563Y294843D01*
X847511Y294813D01*
X847455Y294790D01*
X847375Y294732D01*
X847290Y294682D01*
X847214Y294616D01*
X847198Y294604D01*
X847190Y294594D01*
X847169Y294576D01*
X819912Y267319D01*
X819852Y267241D01*
X819784Y267169D01*
X819755Y267116D01*
X819718Y267068D01*
X819678Y266977D01*
X819630Y266890D01*
X819615Y266832D01*
X819591Y266776D01*
X819576Y266678D01*
X819551Y266583D01*
X819545Y266482D01*
X819541Y266462D01*
X819543Y266450D01*
X819541Y266422D01*
X819541Y240131D01*
X819553Y240032D01*
X819556Y239933D01*
X819573Y239875D01*
X819581Y239815D01*
X819617Y239723D01*
X819645Y239628D01*
X819675Y239576D01*
X819698Y239519D01*
X819756Y239439D01*
X819806Y239354D01*
X819872Y239279D01*
X819884Y239262D01*
X819894Y239254D01*
X819912Y239233D01*
X821284Y237862D01*
X822053Y236005D01*
X822053Y233995D01*
X821284Y232138D01*
X819862Y230716D01*
X818005Y229947D01*
X815995Y229947D01*
G37*
%LPD*%
%LPC*%
G36*
X1049495Y84447D02*
X1049495Y84447D01*
X1047638Y85216D01*
X1046216Y86638D01*
X1045447Y88495D01*
X1045447Y90505D01*
X1046216Y92362D01*
X1047588Y93733D01*
X1047648Y93811D01*
X1047716Y93884D01*
X1047745Y93937D01*
X1047782Y93984D01*
X1047822Y94075D01*
X1047870Y94162D01*
X1047885Y94221D01*
X1047909Y94276D01*
X1047924Y94374D01*
X1047949Y94470D01*
X1047955Y94570D01*
X1047959Y94590D01*
X1047957Y94603D01*
X1047959Y94631D01*
X1047959Y116552D01*
X1077576Y146169D01*
X1077636Y146247D01*
X1077704Y146319D01*
X1077733Y146372D01*
X1077770Y146420D01*
X1077810Y146511D01*
X1077858Y146598D01*
X1077873Y146656D01*
X1077897Y146712D01*
X1077912Y146810D01*
X1077937Y146905D01*
X1077943Y147006D01*
X1077947Y147026D01*
X1077945Y147038D01*
X1077947Y147066D01*
X1077947Y149005D01*
X1078716Y150862D01*
X1080138Y152284D01*
X1081995Y153053D01*
X1084005Y153053D01*
X1085862Y152284D01*
X1087284Y150862D01*
X1088053Y149005D01*
X1088053Y146995D01*
X1087284Y145138D01*
X1085862Y143716D01*
X1084005Y142947D01*
X1082066Y142947D01*
X1081968Y142935D01*
X1081869Y142932D01*
X1081811Y142915D01*
X1081751Y142907D01*
X1081659Y142871D01*
X1081563Y142843D01*
X1081511Y142813D01*
X1081455Y142790D01*
X1081375Y142732D01*
X1081290Y142682D01*
X1081214Y142616D01*
X1081198Y142604D01*
X1081190Y142594D01*
X1081169Y142576D01*
X1053412Y114819D01*
X1053352Y114741D01*
X1053284Y114669D01*
X1053255Y114616D01*
X1053218Y114568D01*
X1053178Y114477D01*
X1053130Y114390D01*
X1053115Y114332D01*
X1053091Y114276D01*
X1053076Y114178D01*
X1053051Y114083D01*
X1053045Y113982D01*
X1053041Y113962D01*
X1053043Y113950D01*
X1053041Y113922D01*
X1053041Y94631D01*
X1053053Y94532D01*
X1053056Y94433D01*
X1053073Y94375D01*
X1053081Y94315D01*
X1053117Y94223D01*
X1053145Y94128D01*
X1053175Y94076D01*
X1053198Y94019D01*
X1053256Y93939D01*
X1053306Y93854D01*
X1053372Y93779D01*
X1053384Y93762D01*
X1053394Y93754D01*
X1053412Y93733D01*
X1054784Y92362D01*
X1055553Y90505D01*
X1055553Y88495D01*
X1054784Y86638D01*
X1053362Y85216D01*
X1051505Y84447D01*
X1049495Y84447D01*
G37*
%LPD*%
%LPC*%
G36*
X61958Y583486D02*
X61958Y583486D01*
X57722Y585241D01*
X54480Y588483D01*
X52725Y592719D01*
X52725Y597303D01*
X54480Y601539D01*
X57722Y604781D01*
X61958Y606536D01*
X66542Y606536D01*
X70778Y604781D01*
X74020Y601539D01*
X75775Y597303D01*
X75775Y592719D01*
X74020Y588483D01*
X70778Y585241D01*
X66542Y583486D01*
X61958Y583486D01*
G37*
%LPD*%
%LPC*%
G36*
X57658Y453486D02*
X57658Y453486D01*
X53422Y455241D01*
X50180Y458483D01*
X48425Y462719D01*
X48425Y467303D01*
X50180Y471539D01*
X53422Y474781D01*
X57658Y476536D01*
X62242Y476536D01*
X66478Y474781D01*
X69720Y471539D01*
X71475Y467303D01*
X71475Y462719D01*
X69720Y458483D01*
X66478Y455241D01*
X62242Y453486D01*
X57658Y453486D01*
G37*
%LPD*%
%LPC*%
G36*
X57658Y402686D02*
X57658Y402686D01*
X53422Y404441D01*
X50180Y407683D01*
X48425Y411919D01*
X48425Y416503D01*
X50180Y420739D01*
X53422Y423981D01*
X57658Y425736D01*
X62242Y425736D01*
X66478Y423981D01*
X69720Y420739D01*
X71475Y416503D01*
X71475Y411919D01*
X69720Y407683D01*
X66478Y404441D01*
X62242Y402686D01*
X57658Y402686D01*
G37*
%LPD*%
%LPC*%
G36*
X61958Y532686D02*
X61958Y532686D01*
X57722Y534441D01*
X54480Y537683D01*
X52725Y541919D01*
X52725Y546503D01*
X54480Y550739D01*
X57722Y553981D01*
X61958Y555736D01*
X66542Y555736D01*
X70778Y553981D01*
X74020Y550739D01*
X75775Y546503D01*
X75775Y541919D01*
X74020Y537683D01*
X70778Y534441D01*
X66542Y532686D01*
X61958Y532686D01*
G37*
%LPD*%
%LPC*%
G36*
X57958Y263286D02*
X57958Y263286D01*
X53722Y265041D01*
X50480Y268283D01*
X48725Y272519D01*
X48725Y277103D01*
X50480Y281339D01*
X53722Y284581D01*
X57958Y286336D01*
X62542Y286336D01*
X66778Y284581D01*
X70020Y281339D01*
X71775Y277103D01*
X71775Y272519D01*
X70020Y268283D01*
X66778Y265041D01*
X62542Y263286D01*
X57958Y263286D01*
G37*
%LPD*%
%LPC*%
G36*
X762995Y322947D02*
X762995Y322947D01*
X761138Y323716D01*
X759767Y325088D01*
X759689Y325148D01*
X759616Y325216D01*
X759563Y325245D01*
X759516Y325282D01*
X759425Y325322D01*
X759338Y325370D01*
X759279Y325385D01*
X759224Y325409D01*
X759126Y325424D01*
X759030Y325449D01*
X758930Y325455D01*
X758910Y325459D01*
X758897Y325457D01*
X758869Y325459D01*
X755948Y325459D01*
X726831Y354576D01*
X726753Y354636D01*
X726681Y354704D01*
X726628Y354733D01*
X726580Y354770D01*
X726489Y354810D01*
X726402Y354858D01*
X726344Y354873D01*
X726288Y354897D01*
X726190Y354912D01*
X726095Y354937D01*
X725994Y354943D01*
X725974Y354947D01*
X725962Y354945D01*
X725934Y354947D01*
X723995Y354947D01*
X722138Y355716D01*
X720716Y357138D01*
X719947Y358995D01*
X719947Y361005D01*
X720716Y362862D01*
X722138Y364284D01*
X723995Y365053D01*
X726005Y365053D01*
X727862Y364284D01*
X729284Y362862D01*
X730053Y361005D01*
X730053Y359066D01*
X730065Y358968D01*
X730068Y358869D01*
X730085Y358811D01*
X730093Y358751D01*
X730129Y358659D01*
X730157Y358563D01*
X730187Y358511D01*
X730210Y358455D01*
X730268Y358375D01*
X730318Y358290D01*
X730384Y358214D01*
X730396Y358198D01*
X730406Y358190D01*
X730424Y358169D01*
X757681Y330912D01*
X757759Y330852D01*
X757831Y330784D01*
X757884Y330755D01*
X757932Y330718D01*
X758023Y330678D01*
X758110Y330630D01*
X758168Y330615D01*
X758224Y330591D01*
X758322Y330576D01*
X758417Y330551D01*
X758518Y330545D01*
X758538Y330541D01*
X758550Y330543D01*
X758578Y330541D01*
X758869Y330541D01*
X758968Y330553D01*
X759067Y330556D01*
X759125Y330573D01*
X759185Y330581D01*
X759277Y330617D01*
X759372Y330645D01*
X759424Y330675D01*
X759481Y330698D01*
X759561Y330756D01*
X759646Y330806D01*
X759721Y330872D01*
X759738Y330884D01*
X759746Y330894D01*
X759767Y330912D01*
X761138Y332284D01*
X762995Y333053D01*
X765005Y333053D01*
X766862Y332284D01*
X768284Y330862D01*
X769053Y329005D01*
X769053Y326995D01*
X768284Y325138D01*
X766862Y323716D01*
X765005Y322947D01*
X762995Y322947D01*
G37*
%LPD*%
%LPC*%
G36*
X1132995Y84947D02*
X1132995Y84947D01*
X1131138Y85716D01*
X1129767Y87088D01*
X1129689Y87148D01*
X1129616Y87216D01*
X1129563Y87245D01*
X1129516Y87282D01*
X1129425Y87322D01*
X1129338Y87370D01*
X1129279Y87385D01*
X1129224Y87409D01*
X1129126Y87424D01*
X1129030Y87449D01*
X1128930Y87455D01*
X1128910Y87459D01*
X1128897Y87457D01*
X1128869Y87459D01*
X1103948Y87459D01*
X1090831Y100576D01*
X1090753Y100636D01*
X1090681Y100704D01*
X1090628Y100733D01*
X1090580Y100770D01*
X1090489Y100810D01*
X1090402Y100858D01*
X1090344Y100873D01*
X1090288Y100897D01*
X1090190Y100912D01*
X1090095Y100937D01*
X1089994Y100943D01*
X1089974Y100947D01*
X1089962Y100945D01*
X1089934Y100947D01*
X1087995Y100947D01*
X1086138Y101716D01*
X1084716Y103138D01*
X1083947Y104995D01*
X1083947Y107005D01*
X1084716Y108862D01*
X1086138Y110284D01*
X1087995Y111053D01*
X1090005Y111053D01*
X1091862Y110284D01*
X1093284Y108862D01*
X1094053Y107005D01*
X1094053Y105066D01*
X1094065Y104968D01*
X1094068Y104869D01*
X1094085Y104811D01*
X1094093Y104751D01*
X1094129Y104659D01*
X1094157Y104563D01*
X1094187Y104511D01*
X1094210Y104455D01*
X1094268Y104375D01*
X1094318Y104290D01*
X1094384Y104214D01*
X1094396Y104198D01*
X1094406Y104190D01*
X1094424Y104169D01*
X1105681Y92912D01*
X1105759Y92852D01*
X1105831Y92784D01*
X1105884Y92755D01*
X1105932Y92718D01*
X1106023Y92678D01*
X1106110Y92630D01*
X1106168Y92615D01*
X1106224Y92591D01*
X1106322Y92576D01*
X1106417Y92551D01*
X1106518Y92545D01*
X1106538Y92541D01*
X1106550Y92543D01*
X1106578Y92541D01*
X1128869Y92541D01*
X1128968Y92553D01*
X1129067Y92556D01*
X1129125Y92573D01*
X1129185Y92581D01*
X1129277Y92617D01*
X1129372Y92645D01*
X1129424Y92675D01*
X1129481Y92698D01*
X1129561Y92756D01*
X1129646Y92806D01*
X1129721Y92872D01*
X1129738Y92884D01*
X1129746Y92894D01*
X1129767Y92912D01*
X1131138Y94284D01*
X1132995Y95053D01*
X1135005Y95053D01*
X1136862Y94284D01*
X1138284Y92862D01*
X1139053Y91005D01*
X1139053Y88995D01*
X1138284Y87138D01*
X1136862Y85716D01*
X1135005Y84947D01*
X1132995Y84947D01*
G37*
%LPD*%
%LPC*%
G36*
X1027995Y69947D02*
X1027995Y69947D01*
X1026138Y70716D01*
X1024716Y72138D01*
X1023947Y73995D01*
X1023947Y76005D01*
X1024716Y77862D01*
X1026138Y79284D01*
X1027995Y80053D01*
X1030005Y80053D01*
X1031862Y79284D01*
X1033284Y77862D01*
X1034053Y76005D01*
X1034053Y73995D01*
X1033284Y72138D01*
X1031862Y70716D01*
X1030005Y69947D01*
X1027995Y69947D01*
G37*
%LPD*%
%LPC*%
G36*
X1117995Y102947D02*
X1117995Y102947D01*
X1116138Y103716D01*
X1114716Y105138D01*
X1113947Y106995D01*
X1113947Y109005D01*
X1114716Y110862D01*
X1116138Y112284D01*
X1117995Y113053D01*
X1120005Y113053D01*
X1121862Y112284D01*
X1123284Y110862D01*
X1124053Y109005D01*
X1124053Y106995D01*
X1123284Y105138D01*
X1121862Y103716D01*
X1120005Y102947D01*
X1117995Y102947D01*
G37*
%LPD*%
%LPC*%
G36*
X1075995Y80947D02*
X1075995Y80947D01*
X1074138Y81716D01*
X1072716Y83138D01*
X1071947Y84995D01*
X1071947Y87005D01*
X1072716Y88862D01*
X1074138Y90284D01*
X1075995Y91053D01*
X1078005Y91053D01*
X1079862Y90284D01*
X1081284Y88862D01*
X1082053Y87005D01*
X1082053Y84995D01*
X1081284Y83138D01*
X1079862Y81716D01*
X1078005Y80947D01*
X1075995Y80947D01*
G37*
%LPD*%
%LPC*%
G36*
X62789Y328150D02*
X62789Y328150D01*
X62789Y337906D01*
X63187Y337843D01*
X65064Y337233D01*
X66823Y336337D01*
X68420Y335177D01*
X69816Y333781D01*
X70976Y332184D01*
X71872Y330425D01*
X72482Y328548D01*
X72545Y328150D01*
X62789Y328150D01*
G37*
%LPD*%
%LPC*%
G36*
X47955Y328150D02*
X47955Y328150D01*
X48018Y328548D01*
X48628Y330425D01*
X49524Y332184D01*
X50684Y333781D01*
X52080Y335177D01*
X53677Y336337D01*
X55436Y337233D01*
X57313Y337843D01*
X57711Y337906D01*
X57711Y328150D01*
X47955Y328150D01*
G37*
%LPD*%
%LPC*%
G36*
X62789Y323072D02*
X62789Y323072D01*
X72545Y323072D01*
X72482Y322674D01*
X71872Y320797D01*
X70976Y319038D01*
X69816Y317441D01*
X68420Y316045D01*
X66823Y314885D01*
X65064Y313989D01*
X63187Y313379D01*
X62789Y313316D01*
X62789Y323072D01*
G37*
%LPD*%
%LPC*%
G36*
X57313Y313379D02*
X57313Y313379D01*
X55436Y313989D01*
X53677Y314885D01*
X52080Y316045D01*
X50684Y317441D01*
X49524Y319038D01*
X48628Y320797D01*
X48018Y322674D01*
X47955Y323072D01*
X57711Y323072D01*
X57711Y313316D01*
X57313Y313379D01*
G37*
%LPD*%
%LPC*%
G36*
X60249Y325610D02*
X60249Y325610D01*
X60249Y325612D01*
X60251Y325612D01*
X60251Y325610D01*
X60249Y325610D01*
G37*
%LPD*%
D10*
X69960Y190250D02*
X80640Y190250D01*
X80640Y117950D02*
X69960Y117950D01*
D11*
X57390Y121550D02*
X45210Y121550D01*
X45210Y186650D02*
X57390Y186650D01*
D12*
X64250Y595011D03*
X64250Y544211D03*
X59950Y465011D03*
X59950Y414211D03*
X60250Y325611D03*
X60250Y274811D03*
D13*
X277000Y551000D03*
X318000Y586000D03*
X894000Y69000D03*
X873000Y97000D03*
X780000Y64000D03*
X576000Y68000D03*
X543000Y62000D03*
X425000Y63000D03*
X758000Y440000D03*
X1058000Y360000D03*
X1108000Y378000D03*
X564000Y219000D03*
X767000Y256000D03*
X745000Y243000D03*
X738000Y250000D03*
X730000Y257000D03*
X722000Y264000D03*
X672000Y228000D03*
X661000Y228000D03*
X661000Y217000D03*
X672000Y217000D03*
X778000Y256000D03*
X789000Y256000D03*
X800000Y256000D03*
X778000Y245000D03*
X789000Y245000D03*
X800000Y245000D03*
X733000Y339000D03*
X733000Y328000D03*
X744000Y328000D03*
X1067000Y360000D03*
X1077000Y360000D03*
X715000Y166000D03*
D14*
X715000Y100000D01*
X687000Y72000D01*
D13*
X687000Y72000D03*
X474000Y603000D03*
X647000Y329000D03*
D14*
X474000Y502000D01*
X474000Y603000D01*
D13*
X564000Y624000D03*
D14*
X665000Y624000D01*
D13*
X665000Y624000D03*
X904000Y450000D03*
D14*
X961000Y507000D01*
D13*
X961000Y507000D03*
X764000Y328000D03*
D14*
X757000Y328000D01*
X725000Y360000D01*
D13*
X725000Y360000D03*
X149000Y174000D03*
D14*
X211000Y112000D01*
X361000Y112000D01*
D13*
X361000Y112000D03*
X311000Y272000D03*
D14*
X355000Y272000D01*
X436000Y191000D01*
D13*
X436000Y191000D03*
X467000Y180000D03*
X170446Y177554D03*
D14*
X172893Y180000D01*
X467000Y180000D01*
X467000Y251000D01*
D15*
X467000Y251000D03*
D13*
X467088Y170000D03*
D14*
X467088Y170088D01*
D13*
X168650Y166350D03*
D14*
X172388Y170088D01*
X467088Y170088D01*
X467088Y170000D02*
X475000Y177912D01*
X475000Y260000D01*
D15*
X475000Y260000D03*
D13*
X555574Y260426D03*
D14*
X559126Y260426D01*
X559276Y260576D01*
X685171Y260576D01*
X789747Y156000D01*
X1021488Y156000D02*
X1024000Y158512D01*
D13*
X1024000Y158512D03*
D14*
X1021488Y156000D02*
X789747Y156000D01*
D13*
X562000Y254000D03*
D14*
X686000Y254000D01*
X788064Y151936D01*
X1043936Y151936D02*
X1044000Y152000D01*
D13*
X1044000Y152000D03*
D14*
X1043936Y151936D02*
X788064Y151936D01*
X71700Y121550D02*
X51300Y121550D01*
X71700Y121550D02*
X75300Y117950D01*
X51300Y121550D02*
X51300Y186650D01*
X54900Y190250D01*
X75300Y190250D01*
D13*
X586000Y308000D03*
D14*
X655000Y308000D01*
X1045000Y171000D02*
X1046000Y172000D01*
D13*
X1046000Y172000D03*
D14*
X792000Y171000D02*
X655000Y308000D01*
X792000Y171000D02*
X1045000Y171000D01*
D13*
X929000Y605000D03*
D14*
X1049000Y485000D01*
X1095000Y485000D01*
X1163000Y417000D01*
X1086000Y284000D02*
X1086000Y269000D01*
D13*
X1086000Y269000D03*
D14*
X1163000Y361000D02*
X1163000Y417000D01*
X1163000Y361000D02*
X1086000Y284000D01*
D15*
X654000Y295000D03*
D14*
X658000Y295000D01*
X791000Y162000D01*
X888178Y162000D01*
X889000Y162822D01*
D15*
X889000Y162822D03*
D13*
X909000Y613000D03*
D14*
X1044000Y478000D01*
X1089000Y478000D02*
X1155000Y412000D01*
X1155000Y363000D01*
X1079000Y287000D02*
X1079000Y174000D01*
X1043381Y165678D02*
X1043059Y166000D01*
X1070678Y165678D02*
X1079000Y174000D01*
X1070678Y165678D02*
X1043381Y165678D01*
X892178Y166000D02*
X889000Y162822D01*
X1044000Y478000D02*
X1089000Y478000D01*
X1155000Y363000D02*
X1079000Y287000D01*
X1043059Y166000D02*
X892178Y166000D01*
D13*
X929000Y317000D03*
D14*
X890000Y356000D01*
D13*
X890000Y356000D03*
X904000Y465000D03*
D14*
X961000Y522000D01*
D13*
X961000Y522000D03*
X731000Y540000D03*
D14*
X948000Y323000D01*
X1025000Y323000D02*
X1029000Y319000D01*
D13*
X1029000Y319000D03*
D14*
X1025000Y323000D02*
X948000Y323000D01*
D13*
X735000Y525000D03*
D14*
X944000Y316000D01*
X995000Y316000D01*
D13*
X995000Y316000D03*
X499000Y620000D03*
D14*
X797000Y322000D01*
X854000Y322000D02*
X905000Y271000D01*
X905000Y247000D02*
X910000Y242000D01*
D13*
X910000Y242000D03*
D14*
X854000Y322000D02*
X797000Y322000D01*
X905000Y271000D02*
X905000Y247000D01*
D13*
X487000Y620000D03*
D14*
X792000Y315000D01*
D13*
X892000Y272000D03*
D14*
X849000Y315000D02*
X792000Y315000D01*
X849000Y315000D02*
X892000Y272000D01*
D13*
X817000Y235000D03*
D14*
X817000Y268000D01*
X849000Y300000D01*
D13*
X849000Y300000D03*
X1050500Y89500D03*
D14*
X1050500Y115500D01*
X1083000Y148000D01*
D13*
X1083000Y148000D03*
X1067000Y177000D03*
D14*
X1067000Y285000D01*
X1067000Y292000D01*
D13*
X1073000Y432000D03*
D14*
X1067000Y342059D02*
X1067000Y292000D01*
X1067000Y342059D02*
X1051678Y357381D01*
X1051678Y410678D02*
X1073000Y432000D01*
X1051678Y410678D02*
X1051678Y357381D01*
D13*
X831000Y72000D03*
D14*
X904000Y145000D01*
X1061000Y145000D01*
D13*
X1061000Y145000D03*
X968000Y72000D03*
D14*
X968000Y136000D01*
D13*
X968000Y136000D03*
X946000Y197000D03*
D14*
X1011000Y262000D01*
X1011000Y278000D01*
D13*
X1011000Y278000D03*
X949000Y483322D03*
D14*
X960322Y472000D01*
X1085000Y472000D02*
X1128000Y429000D01*
D13*
X1128000Y429000D03*
D14*
X1085000Y472000D02*
X960322Y472000D01*
D13*
X1089000Y106000D03*
D14*
X1105000Y90000D01*
X1134000Y90000D01*
D13*
X1134000Y90000D03*
X184700Y104700D03*
D14*
X295300Y104700D01*
X296000Y104000D01*
D13*
X296000Y104000D03*
X201500Y97500D03*
X305000Y97000D03*
D14*
X293200Y97500D02*
X201500Y97500D01*
X293200Y97500D02*
X293276Y97424D01*
X304576Y97424D02*
X305000Y97000D01*
X304576Y97424D02*
X293276Y97424D01*
D13*
X216500Y88500D03*
D14*
X312500Y88500D01*
X313000Y89000D01*
D13*
X313000Y89000D03*
X1119000Y108000D03*
X1029000Y75000D03*
X1077000Y86000D03*
M02*
