M48
;GenerationSoftware,Autodesk,EAGLE,8.6.1*%
;CreationDate,2020-03-10T10:31:52Z*%
FMAT,2
ICI,OFF
METRIC,TZ,000.000
T7C0.350
T6C0.450
T5C0.560
T4C0.710
T3C0.900
T2C1.300
T1C3.000
%
G90
M71
T1
X116000Y4000
X116000Y66000
X4000Y66000
X4000Y4000
T2
X6025Y27481
X6025Y32561
X5995Y41421
X5995Y46501
X6425Y54421
X6425Y59501
T3
X86915Y65270
X82665Y65270
X93805Y65270
X89555Y65270
T4
X5130Y18665
X5130Y12155
T5
X7530Y11795
X7530Y19025
T6
X88900Y16282
X65400Y29500
X47500Y26000
X46700Y25100
T7
X78900Y25600
X80000Y25600
X77800Y24500
X78900Y24500
X80000Y24500
X73300Y33900
X73300Y32800
X74400Y32800
X106700Y36000
X107700Y36000
X71500Y16600
X68700Y7200
X47400Y60300
X64700Y32900
X56400Y62400
X66500Y62400
X90400Y45000
X96100Y50700
X76400Y32800
X72500Y36000
X14900Y17400
X36100Y11200
X31100Y27200
X43600Y19100
X46700Y18000
X17045Y17755
X77800Y25600
X46709Y17000
X16865Y16635
X67200Y21700
X55557Y26043
X102400Y15851
X56200Y25400
X104400Y15200
X58600Y30800
X104600Y17200
X92900Y60500
X27700Y55100
X66100Y21700
X66100Y22800
X90900Y61300
X92900Y31700
X89000Y35600
X90400Y46500
X96100Y52200
X73100Y54000
X102900Y31900
X73500Y52500
X99500Y31600
X49900Y62000
X91000Y24200
X48700Y62000
X89200Y27200
X81700Y23500
X84900Y30000
X105050Y8950
X108300Y14800
X106700Y17700
X107300Y43200
X83100Y7200
X106100Y14500
X96800Y7200
X96800Y13600
X94600Y19700
X101100Y27800
X94900Y48332
X112800Y42900
X108900Y10600
X113400Y9000
X18470Y10470
X29600Y10400
X20150Y9750
X30500Y9700
X21650Y8850
X31300Y8900
X111900Y10800
X102900Y7500
X107700Y8600
X67200Y22800
X72200Y26400
X73000Y25700
X73800Y25000
X74500Y24300
X76700Y25600
X56400Y21900
X110800Y37800
X105800Y36000
X75800Y44000
X42500Y6300
X54300Y6200
X57600Y6800
X78000Y6400
X87300Y9700
X89400Y6900
X31800Y58600
X108600Y26900
M30